<?xml version="1.0" encoding="utf-8"?>
<svg version="1.1" id="Layer_1" xmlns="http://www.w3.org/2000/svg" xmlns:xlink="http://www.w3.org/1999/xlink" x="0px" y="0px"
	 viewBox="0 0 167.2 238.1" style="fill: #660000; opacity: .8" xml:space="preserve">
<g>
	
	<path d="M166.3,11.7c-0.4-0.1-0.7,0.2-0.7,0.4c0,0.2-0.9,0.6-1.4,0.6c-0.3,0-0.4,0-0.4,0.3c0,0.1,0.1,0.3,0.2,0.3
		c0.2,0.1,1.2-0.3,1.7-0.6c0.2-0.1,0.6-0.3,0.8-0.3c0.2,0,0.4-0.1,0.6-0.3v-0.4l0,0C166.8,11.7,166.5,11.7,166.3,11.7z"/>
	<path d="M166.5,10c-0.7,0.1-0.7,0.4-0.1,0.6c0.2,0.1,0.5,0.3,0.6,0.5l0,0v-1.1C166.8,10,166.7,9.9,166.5,10z"/>
	<path d="M165.5,13.9c0-0.1-0.1-0.1-0.1-0.1c-0.1,0-0.1,0-0.1,0c0,0,0.1,0.1,0.1,0.1C165.4,13.9,165.5,13.9,165.5,13.9z"/>
	<path d="M165,13.3c-0.1,0-0.1,0-0.1,0c0,0.1,0.1,0.1,0.1,0.2c0.1,0,0.1,0,0.1,0C165.2,13.4,165.1,13.3,165,13.3z"/>
	<path d="M164.6,11.5c0.1,0,0.1-0.1,0.1-0.1c0-0.1-0.1-0.1-0.2-0.1c-0.1,0-0.2,0-0.1,0.1C164.4,11.5,164.5,11.5,164.6,11.5z"/>
	<path d="M163.8,11.7c-0.1,0.1-0.1,0.2,0,0.4c0.2,0.2,0.5,0.3,0.7,0.2c0.2-0.1,0.1-0.2-0.1-0.2c-0.1,0-0.2-0.1-0.2-0.2
		C164.2,11.6,164,11.6,163.8,11.7z"/>
	<path d="M162.1,26.4c-0.2-0.1-0.5-0.3-0.6-0.3c-0.1,0-0.3-0.2-0.3-0.3c0-0.3-0.2-0.3-1-0.5c-0.7-0.2-1-0.1-0.7,0.2
		c0.1,0.1,0.2,0.3,0.2,0.5c0,0.1,0.1,0.3,0.2,0.3c0.1,0,0.2,0.1,0.2,0.2c0,0.2-0.5,0.1-0.6-0.2c-0.1-0.1-0.4-0.3-0.9-0.5
		c-0.4-0.2-0.7-0.4-0.7-0.4c0-0.1-0.2-0.1-0.4-0.1c-0.6,0-0.6,0.1-0.1,0.3c0.6,0.3,1,0.6,0.9,0.7c0,0.1,0.2,0.3,0.6,0.5
		c0.8,0.4,1.3,0.5,2.2,0.2"/>
	<path d="M162.4,25.7"/>
	<path d="M163.7,10.1c0.5-0.2,0.5-0.2,0.4-0.5c-0.1-0.2-0.3-0.2-0.4,0.1c-0.1,0.2-0.1,0.2-0.3,0.1c-0.3-0.2-0.5,0.1-0.2,0.4
		C163.3,10.2,163.4,10.2,163.7,10.1z"/>
	<path d="M162,24.4c-0.5,0-0.5,0.2,0.1,0.4"/>
	<path d="M163.6,14.1c0.1,0,0.3,0,0.3-0.1c0.1,0,0-0.1-0.1-0.1c-0.1,0-0.2,0-0.3,0.1C163.5,14,163.5,14.1,163.6,14.1z"/>
	<path d="M163.6,13.5c0.2-0.1,0.2-0.2,0-0.3c-0.2-0.1-0.5,0.1-0.3,0.2C163.4,13.5,163.6,13.5,163.6,13.5z"/>
	<path d="M163.4,12.5c0.1,0,0.2-0.1,0.2-0.1c0-0.1-0.1-0.1-0.2-0.1c-0.1,0-0.2,0-0.2,0.1C163.2,12.4,163.3,12.5,163.4,12.5z"/>
	<path d="M163.5,11.8c0-0.1-0.1-0.2-0.2-0.2c-0.2,0-0.2,0.2,0.1,0.3C163.4,11.9,163.5,11.9,163.5,11.8z"/>
	<path d="M162.4,13.8c0,0.1,0.2,0.1,0.3,0.1s0.2-0.1,0.1-0.1c0-0.1-0.2-0.1-0.3-0.1C162.4,13.7,162.4,13.8,162.4,13.8z"/>
	<path d="M154,27.7c0-0.2-1.1-0.3-1.6-0.2"/>
	<path d="M162.4,13.1c0.2,0,0.3,0,0.3-0.1c0-0.1-0.2-0.1-0.4-0.1s-0.4-0.1-0.4-0.2c-0.1-0.2-0.3-0.2-0.3,0
		C161.5,12.9,161.9,13.1,162.4,13.1z"/>
	<path d="M162.5,23.7c0-0.1-0.1-0.1-0.1-0.1c-0.1,0-0.1,0-0.1,0.1c0,0.1,0.1,0.1,0.1,0.1C162.4,23.8,162.5,23.8,162.5,23.7z"/>
	<path d="M162.3,11.1c0.1,0,0.1-0.1,0.1-0.3c0-0.1-0.1-0.2-0.1-0.2c-0.1,0-0.1,0.2-0.1,0.3C162.2,11,162.3,11.1,162.3,11.1z"/>
	<ellipse cx="162.1" cy="11.3" rx="0.1" ry="0.1"/>
	<path d="M161.8,27.2c-0.2,0-0.3,0-0.4,0.1c0,0.1-0.3,0.1-0.5,0.1c-0.7,0-1,0.1-1,0.4c0,0.2,0.1,0.2,0.7,0.2c0.4,0,0.8-0.1,1-0.2
		C162.1,27.6,162.2,27.2,161.8,27.2z"/>
	<path d="M162.1,14c0-0.1-0.1-0.2-0.1-0.2c-0.1,0-0.1,0-0.1,0.1c0,0.1,0.1,0.1,0.1,0.2C162,14.1,162.1,14.1,162.1,14z"/>
	<path d="M161.6,15.2c0.1,0.1,0.2,0.1,0.2,0.1c0.2-0.1,0.2-0.2-0.1-0.2C161.6,15.1,161.5,15.2,161.6,15.2z"/>
	<path d="M161.7,25.5c0.1,0,0.1-0.1,0.1-0.1c0-0.1-0.2-0.1-0.2-0.1c-0.1,0-0.1,0-0.1,0.1C161.5,25.5,161.6,25.5,161.7,25.5z"/>
	<path d="M161.3,28.5"/>
	<path d="M161.4,13.4c0,0.1,0.1,0.1,0.1,0.1c0.1,0,0.1-0.1,0.1-0.1c0-0.1-0.1-0.1-0.1-0.1C161.4,13.3,161.4,13.4,161.4,13.4z"/>
	<path d="M161.3,20.5c0.3,0,0.3-0.1,0.1-0.2c-0.1,0-0.2,0-0.2,0.1C161.1,20.5,161.2,20.5,161.3,20.5z"/>
	<path d="M161.4,14.2c0-0.1-0.2-0.1-0.3-0.1c-0.1,0-0.2,0-0.1,0.1c0,0.1,0.2,0.1,0.3,0.1C161.4,14.3,161.5,14.2,161.4,14.2z"/>
	<path d="M161.3,11c0.1,0,0.2,0,0.2-0.1c-0.1-0.2-0.4-0.2-0.4-0.1C161.1,10.9,161.2,11,161.3,11z"/>
	<path d="M159.5,12.4c-0.3,0.2-0.3,0.2-0.1,0.2c0.1,0,0.5,0.2,0.8,0.4c0.4,0.3,0.5,0.4,0.6,0.2c0.1-0.1,0-0.2-0.3-0.4
		c-0.3-0.2-0.3-0.2-0.2-0.2c0.1,0,0.3,0.1,0.4,0.2c0.2,0.1,0.2,0.1,0.3,0c0.2-0.3,0.1-0.4-0.3-0.4c-0.2,0-0.6-0.1-0.7-0.1
		C159.8,12.2,159.8,12.2,159.5,12.4z"/>
	<path d="M161.1,12.1c0.2-0.1,0.2-0.4,0-0.5c-0.1,0-0.2,0.1-0.2,0.2C160.8,12.1,160.8,12.2,161.1,12.1z"/>
	<path d="M160.9,14.7c0-0.1-0.1-0.1-0.2-0.1c-0.1,0-0.2,0-0.1,0.1c0,0.1,0.1,0.1,0.2,0.1C160.9,14.8,160.9,14.7,160.9,14.7z"/>
	<path d="M160.5,11.2c0.2,0,0.3-0.1,0.3-0.1c0-0.1-0.1-0.2-0.3-0.3c-0.3-0.1-0.3-0.1-0.3,0.1C160.2,11.1,160.3,11.2,160.5,11.2z"/>
	<path d="M96,12.2c0.3,0.1,0.6,0.3,0.7,0.3c0.1,0,0.1,0.1,0.1,0.1c-0.1,0.1,0.1,0.2,0.5,0.3c0.3,0.1,0.7,0.2,0.9,0.3
		c0.3,0.1,0.4,0.1,0.6-0.1c0.3-0.3,0.5-0.3,0.8,0c0.3,0.2,0.6,0.2,0.4-0.1c0-0.1,0-0.2,0.1-0.3c0.1,0,0.1,0,0.1,0.1
		c0,0.3,0.3,0.5,0.6,0.5c0.3,0,0.3,0,0-0.2c-0.3-0.2-0.3-0.3,0-0.3c0.2,0,0.3,0,0.1-0.3c-0.1-0.1-0.1-0.1-0.3-0.1
		c-0.1,0.1-0.3,0.1-0.5,0c-0.2-0.1-0.4-0.1-0.5-0.1c-0.3,0-0.8-0.4-0.8-0.6c0-0.1,0.1-0.2,0.2-0.2c0.1-0.1,0.3-0.3,0.4-0.5
		c0.2-0.4,0.5-0.5,0.6-0.2c0.1,0.1,0.1,0.1,0.3,0.1c0.1-0.1,0.3-0.1,0.6,0c0.2,0.1,0.3,0.2,0.3,0.2c0,0,0,0.2,0.1,0.4
		c0.2,0.3,0.2,0.3,0,0.3c-0.1,0-0.2,0.1-0.2,0.3c0,0.1,0.1,0.5,0.2,0.8c0.1,0.5,0.1,0.5,0.3,0.3c0.2-0.1,0.2-0.2,0-0.3
		c-0.2-0.1-0.2-0.2,0-0.3c0.3-0.1,0.5-0.1,0.5,0.3c0,0.2,0.1,0.4,0.3,0.5c0.3,0.1,0.4,0.1,0.7,0c0.2-0.1,0.4-0.3,0.4-0.4
		c0-0.4,0.8-0.2,1.3,0.2l0.2,0.2l0.2-0.2c0.1-0.2,0.1-0.3,0-0.4c-0.1-0.1-0.1-0.2,0-0.3c0.2-0.1,0.1-0.2-0.1-0.4
		c-0.4-0.2-0.3-0.5,0.2-0.4c0.2,0,0.5,0,0.7-0.2c0.6-0.3,1.8-0.2,1.8,0.1c0,0.2,0.1,0.3,0.4,0.3c0.1,0,0.2-0.1,0.1-0.4
		c-0.1-0.3,0-0.3,0.1-0.3c0.1,0,0.5,0.1,0.8,0.1c0.6,0.1,1,0.2,1,0.4c0,0.1-0.2,0-0.4-0.1c-0.2-0.1-0.6-0.1-0.7-0.1
		c-0.3,0-0.3,0,0.2,0.2c0.5,0.1,0.5,0.2,0.4,0.3c-0.1,0.1-0.1,0.1,0,0.2c0.3,0.1,0.2,0.4-0.1,0.3c-0.2,0-0.3-0.1-0.2-0.3
		c0-0.2-0.1-0.2-0.3-0.2c-0.3,0-0.4,0.1-0.2,0.3c0.1,0,0.1,0.2,0.1,0.4c-0.1,0.3,0.1,0.5,0.4,0.3c0.4-0.3,0.7,0.1,0.3,0.5
		c-0.2,0.2-0.2,0.2,0.1,0.2c0.2,0,0.3-0.1,0.4-0.3c0.1-0.3,0.2-0.3,0.6-0.3c0.4,0,0.5,0.1,0.6,0.3c0.2,0.3,0.6,0.5,1.1,0.4
		c0.4-0.1,0.5,0,0.7,0.3c0.1,0.2,0.3,0.5,0.4,0.6c0.1,0.1,0.1,0.2,0,0.2c-0.2,0.1-0.2,0.4,0,0.5c0.1,0,0.2,0,0.4-0.1
		c0.2-0.1,0.3-0.1,0.7,0c0.5,0.1,0.5,0.1,0.3,0.3c-0.3,0.1-0.2,0.3,0.2,0.7l0.3,0.2l-0.3,0.2c-0.2,0.1-0.3,0.3-0.3,0.4
		c0,0.2,0,0.2-0.3,0.1c-0.2-0.1-0.4-0.1-0.6-0.1c-0.2,0-0.4,0-0.4-0.1s-0.1-0.1-0.2,0.2c-0.1,0.3-0.1,0.4-0.6,0.4
		c-0.3,0-0.5,0-0.4-0.1c0-0.1,0.2-0.2,0.3-0.2c0.5-0.1,0.5-0.2,0-0.2c-0.5,0-0.7-0.1-0.4-0.2c0.4-0.1-1.2-0.9-1.7-0.9
		c-0.1,0-0.6-0.1-0.9-0.1c-0.4-0.1-0.9-0.2-1.2-0.2c-0.4-0.1-0.5-0.1-0.5-0.3c0-0.1,0-0.1-0.2-0.1c-0.1,0.1-0.3,0.1-0.5,0.1
		c-0.3,0-0.3,0,0,0.2c0.2,0.1,0.3,0.2,0,0.2c-0.1,0-0.2,0-0.2,0.1c0,0.1,0.9,0.6,1,0.5c0.2-0.1,0.1-0.3-0.2-0.4
		c-0.3-0.1-0.3-0.1,0-0.1c0.4,0,0.6,0.2,0.6,0.6c0,0.4,0.2,0.7,0.3,0.3c0-0.2,0.1-0.2,0.4-0.2c0.2,0,0.4-0.1,0.5-0.1
		c0.1-0.1,0.2-0.1,0.3,0c0.1,0.1,0.3,0.1,0.3,0.1c0.1,0,0.4,0,0.6,0c0.4,0.1,0.5,0.1,0.5,0.3c0,0.1,0.1,0.3,0.2,0.4
		c0.3,0.2,0.4,0.6,0.1,1l-0.3,0.3l0.5,0.2c0.6,0.3,0.6,0.3,0.6,0.1c0-0.1,0.1-0.1,0.2-0.1c0.1,0,0.1,0.2,0.1,0.3
		c0,0.1,0,0.3,0.2,0.4c0.2,0.1,0.2,0.3,0.2,0.3c0,0.1,0,0.1,0.2,0.2c0.3,0.1,0.9-0.3,0.8-0.5c-0.1-0.1-0.1-0.4-0.1-0.8v-0.7h0.5
		c0.3,0,0.5-0.1,0.6-0.3c0.2-0.3,0.5-0.4,0.5-0.2c0,0.1,0.1,0.1,0.2,0.1c0.2,0,0.3-0.2,0.1-0.3c-0.1,0-0.1-0.1-0.1-0.2
		c0-0.1,0-0.1,0.3,0c0.2,0.1,0.3,0.3,0.3,0.4c0,0.1,0.1,0.2,0.1,0.2c0.1,0,0.1-0.1,0.1-0.1c0-0.1,0.2-0.2,0.4-0.3
		c0.4-0.1,0.5-0.1,0.9,0.1c0.4,0.2,0.5,0.3,0.5,0.5c0,0.1,0,0.4-0.1,0.6c0,0.2-0.1,0.3-0.3,0.3c-0.1,0-0.2,0-0.2,0
		c0,0.1-0.1,0.1-0.2,0.1c-0.2,0-0.3,0.1-0.2,0.1c0,0.1,0.2,0.1,0.3,0.1c0.1,0,0.6-0.1,1-0.1c0.9-0.1,1.2-0.2,1.2-0.6
		c0-0.3-0.5-0.7-0.8-0.7c-0.2,0-1.5-0.8-1.6-1c-0.1-0.2,0.6-0.1,1.1,0.1c0.3,0.1,0.8,0.2,1,0.2s0.5,0.1,0.6,0.1
		c0.3,0.2,0.2,0.4-0.2,0.4c-0.2,0-0.1,0.1,0.2,0.3c0.5,0.4,0.7,0.3,0.6-0.1c-0.1-0.4,0.1-0.4,0.4-0.1c0.2,0.2,0.2,0.3,0,0.4
		c-0.2,0.1-0.3,0.3-0.3,0.3c0,0.1-0.1,0.2-0.2,0.3c-0.2,0.1-0.2,0.1,0,0.3c0.2,0.1,0.2,0.2,0.1,0.3c-0.3,0.2-0.2,0.3,0.1,0.3
		c0.4-0.1,0.6,0.1,0.6,0.5c0,0.3,0.1,0.3,0.3,0.3c0.5,0,0.6-0.3,0.3-0.7c-0.3-0.3-0.3-0.3,0.2-0.6c0.5-0.4,0.5-0.5,0.2-0.8
		c-0.2-0.2-0.3-0.2-0.1-0.4c0.1-0.2,0.2-0.2,0.4-0.1c0.1,0.1,0.5,0.2,0.7,0.2c0.3,0,0.5,0.1,0.5,0.2c0,0.2-0.4,0.3-0.6,0.3
		c-0.3-0.1-0.3,0.1-0.1,0.2c0.1,0.1,0,0.2-0.2,0.4c-0.5,0.4-0.5,0.8,0,0.8c0.2,0,0.6,0.1,0.8,0.2c1,0.4,1.9,0.1,2.3-0.7l0.2-0.4
		l1.3,0.5c0.7,0.3,1.6,0.7,1.9,0.9c0.3,0.2,0.8,0.4,1.1,0.5c0.3,0.1,1.1,0.3,1.9,0.6c1.2,0.4,1.3,0.5,1.2,0.7
		c-0.1,0.2,0,0.2,0.8,0.3c1,0.1,0.9,0,1.3,1.4c0.3,0.8,0.3,0.8,0.7,0.9c0.4,0.1,0.4,0.1,0.3,0.2c-0.2,0.2-0.1,0.3,0.4,0.3
		c0.4,0,0.8,0.2,0.6,0.4c-0.1,0.1,0,0.2,0.1,0.3c0.2,0.2-0.2,0.6-0.5,0.6c-0.3,0-0.2,0.2,0.1,0.2c0.2,0,0.3,0.1,0.3,0.3
		c0,0.2,0,0.2,0.4,0.2c0.3,0,0.4,0,0.4,0.2c0,0.3,0.3,0.3,0.6,0.1c0.2-0.2,0.4-0.2,0.6,0.1c0.1,0.2,0.1,0.2,0.1-0.1
		c0-0.2,0.1-0.4,0.2-0.5c0.2-0.2,0.2-0.2,0.3,0c0.1,0.3,0.4,0.1,0.3-0.2c0-0.1,0-0.3,0.1-0.3c0.1-0.1,0.1-0.1,0-0.3
		c-0.2-0.3,0-0.6,0.3-0.5c0.2,0,0.3,0,0.3-0.1c0-0.1-0.1-0.1-0.3-0.2c-0.3-0.1-0.3-0.1,0.2-0.3c0.3-0.1,0.7-0.2,0.9-0.2
		c0.2,0,0.5-0.1,0.6-0.2c0.2-0.2,0.2-0.2,0.2,0c0,0.1-0.1,0.2-0.2,0.3c-0.3,0.2-0.3,0.3,0.1,0.3c0.3,0,0.4,0.1,0.4,0.2
		c0,0.2,0.1,0.3,1.1,0.4l0.6,0.1l-0.5,0.1l-0.5,0.1l0.6,0c0.4,0,0.6,0,0.8-0.2c0.3-0.3,1-0.5,1.1-0.4c0.1,0.2,0.3,0.2,0.3,0
		c0-0.1,0.1-0.2,0.4-0.1c0.5,0.1,0.7,0.2,0.7,0.4c0,0.1,0.1,0.1,0.2,0.1c0.2-0.1,2.4,0.5,2.8,0.8c0.1,0.1,0.3,0.1,0.4,0.1
		c0.2,0,0.2,0,0,0.1c-0.2,0.1-0.1,0.1,0.3,0.2c0.2,0.1,0.5,0.2,0.5,0.2c0,0.2,0.4,0.2,0.9,0.1c0.4-0.1,0.5-0.1,0.3-0.3
		s-0.1-0.2,0.2-0.4c0.4-0.3,0.5-0.6,0.3-0.6c-0.1,0-0.4,0.1-0.7,0.1c-0.5,0.1-0.6,0.1-1.7-0.1c-1.1-0.3-1.9-0.6-1.7-0.7
		c0.1-0.1,1.7,0.3,2.1,0.5c0.6,0.3,1.1,0.1,1.3-0.5c0.2-0.5,0.3-0.5,0.5-0.1c0.1,0.1,0.2,0.3,0.3,0.3c0.1,0,0.4,0.2,0.5,0.4
		c0.3,0.3,0.5,0.5,1.3,0.8c0.6,0.2,1.1,0.4,1.3,0.5c0.1,0.1,0.3,0.2,0.4,0.2c0.1,0,0.3,0.1,0.4,0.2c0.2,0.2,0.2,0.2,0,0.3
		c-0.4,0.1-0.3,0.3,0.1,0.3c0.1,0,0.3,0,0.3,0.1c0,0.1,0.5,0.1,0.6,0c0,0,0-0.1-0.1-0.2c-0.1-0.1,0-0.2,0.1-0.3
		c0.2-0.1,0.2-0.2-0.1-0.4c-0.2-0.1-0.4-0.3-0.4-0.5c0-0.2-0.1-0.2-0.3-0.2c-0.2,0-0.4-0.1-0.4-0.1c-0.1-0.1-0.2-0.1-0.3-0.1
		c-0.3,0.1-1.3-0.5-1.3-0.7c0-0.1,0-0.2-0.2-0.2c-0.1,0-0.2-0.1-0.2-0.2c0-0.1-0.1-0.2-0.2-0.2c-0.4-0.1-0.4-0.5,0.1-0.8
		c0.4-0.2,0.5-0.8,0.1-0.7c-0.1,0-0.3,0.1-0.4,0.1c-0.1,0-0.2,0.1-0.3,0.3c-0.1,0.2-0.2,0.3-0.3,0.3c-0.1,0-0.3,0.1-0.3,0.2
		c-0.1,0.2-0.6,0.2-0.9,0c-0.2-0.1-0.3-0.1-0.5,0.1c-0.3,0.3-1.1,0.6-1.3,0.5c-0.3-0.1-0.2-0.8,0.1-1.1c0.2-0.1,0.2-0.2,0.1-0.3
		c-0.2-0.1-0.6,0.1-0.9,0.5c-0.2,0.3-0.2,0.3,0,0.4c0.2,0.1,0.2,0.1,0,0.2c-0.3,0.1-1.5-0.2-1.5-0.4c0-0.1-0.1-0.1-0.1-0.1
		c-0.2,0-0.2-0.2,0-0.4c0.1-0.1,0.2-0.1,0.5,0c0.4,0.1,0.5,0.1,0.8-0.2c0.3-0.2,0.3-0.3,0.2-0.4c-0.2-0.2-1.3-0.4-1.6-0.3
		c-0.3,0.1-0.8,0-0.8-0.2c0-0.1,0.1-0.1,0.3,0c0.2,0.1,0.3,0.1,0.4,0c0.1-0.1,0.1-0.2,0-0.2c-0.1,0-0.1-0.1,0-0.1
		c0.3-0.2,1,0.1,1.8,0.6c0.4,0.3,0.9,0.6,1.2,0.6c0.3,0.1,0.6,0.2,0.8,0.4c0.4,0.3,0.7,0.3,1.6,0c0.5-0.2,0.7-0.3,0.8-0.6
		c0.2-0.4,1-0.7,1.2-0.5c0.1,0.1,0,0.2-0.2,0.3c-0.3,0.2-0.2,0.3,0.1,0.3c0.1,0,0.5-0.1,0.8-0.2c0.9-0.3,0.8-0.7-0.4-1.1
		c-0.3-0.1-0.4-0.2-0.3-0.3c0.1-0.1,0.2-0.2,0.2-0.3c0-0.3,0.2-0.2,0.4,0c0.2,0.3,0.4,0.3,1.3,0c0.7-0.2,1-0.4,1.2-0.8
		c0.1-0.2,0-0.3-1-0.4c-0.1,0-0.4-0.1-0.6-0.3c-0.4-0.3-0.7-0.4-0.7-0.1c0,0.1-0.1,0.1-0.1,0c-0.1-0.1-0.3-0.2-1.1-0.1
		c-0.7,0-1,0-1.1-0.1c-0.2-0.2,0-0.4,0.5-0.3c0.3,0,0.4,0,0.4,0c0-0.1-0.1-0.1-0.1-0.1c-0.1,0-0.2-0.1-0.4-0.1
		c-0.3-0.1-0.3-0.2,0.1-0.3c0.5-0.1,0.4-0.3-0.1-0.3c-0.4,0-0.6-0.2-0.4-0.4c0.1-0.1,0-0.2-0.3-0.4c-0.2-0.2-0.4-0.2-0.4-0.2
		c0,0.2-0.9,0.7-1.1,0.7c-0.1,0-0.2,0-0.2,0.1c0,0.2-0.3,0.2-0.6,0c-0.1-0.1-0.2-0.1-0.1,0.2c0,0.3,0,0.3-0.3,0.5
		c-0.3,0.1-0.4,0.1-0.7,0c-0.9-0.4-1.9-0.8-2.6-0.8c-0.9-0.1-1,0.1-0.1,0.3c0.4,0.1,0.7,0.3,0.7,0.4c0.1,0.2,0.1,0.2,0.3,0.1
		c0.1-0.1,0.3-0.1,0.8,0.1c0.9,0.3,1.6,0.8,1,0.8c-0.1,0-0.2,0.1-0.2,0.2c0,0.1-0.1,0.1-0.4,0c-0.2-0.1-0.6-0.2-0.8-0.3
		c-0.5-0.3-0.7-0.1-0.4,0.3c0.1,0.2,0.2,0.3,0.1,0.4c-0.1,0.1-0.8-0.1-0.9-0.3c0-0.1,0-0.1,0.1-0.1c0.1,0,0.2,0,0.2-0.1
		c0-0.1-0.1-0.1-0.4-0.1c-0.3,0-0.4,0-0.4-0.1c0-0.1-0.1-0.1-0.3-0.1c-0.1,0-0.3-0.1-0.4-0.1c-0.1-0.1-0.4-0.2-0.7-0.3
		c-0.5-0.2-0.6-0.2-0.3-0.4c0.3-0.2,0.2-0.3-0.2-0.2c-0.4,0.1-0.7,0.1-0.7,0c0-0.1-0.1-0.2-0.2-0.3c-0.3-0.2-0.1-0.6,0.3-0.7
		l0.3-0.1l-0.3-0.1c-0.3-0.1-0.8-0.6-0.7-0.8c0.1-0.1-0.6-0.7-0.8-0.7c-0.3,0-0.4,0.2-0.2,0.2c0.1,0,0.1,0.1-0.1,0.1
		c-0.2,0-0.3-0.1-0.3-0.2c0-0.1-0.1-0.2-0.1-0.3c-0.1,0-0.1-0.2-0.1-0.3c0.1-0.2,0-0.2-0.2-0.2c-0.2,0-0.3-0.1-0.2-0.2
		c0.1-0.3-0.2-0.9-0.4-0.7c-0.1,0.1-0.1,0.2,0,0.6c0.2,0.5,0.1,0.7-0.2,0.5c-0.2-0.2-0.4-0.2-0.4,0.1c0,0.3,0.4,0.5,0.7,0.3
		c0.2-0.1,0.3-0.1,0.4,0.1c0.2,0.3,0.1,0.5-0.3,0.5c-0.3,0-0.4,0.1-0.4,0.2c0,0.3-0.3,0.3-0.4-0.1c-0.2-0.4-0.3-0.2-0.2,0.2
		c0.2,0.4,0.1,0.4-0.2,0.3c-0.1-0.1-0.1-0.1-0.1-0.2c0.1-0.1-0.1-0.2-0.4-0.1c-0.3,0-1.6-0.3-1.6-0.4c0-0.1,0.9-0.1,1.4,0.1
		c0.2,0.1,0.2-0.3,0-0.5c-0.1-0.1-0.2-0.1-0.3,0c-0.1,0.2-0.7,0.1-0.7-0.2c0-0.2,0.1-0.2,0.4-0.2c0.2,0,0.4-0.1,0.4-0.1
		c0-0.1-0.1-0.1-0.5-0.1c-0.4,0-0.5,0-0.4-0.2c0.1-0.2,0-0.2-0.2-0.2c-0.2,0-0.3-0.1-0.3-0.3c0-0.2,0-0.2-0.4-0.2
		c-0.3,0-0.3,0-0.2-0.1C138,14.2,138,14,138,14c0-0.1,0-0.1-0.2,0c-0.2,0.2-0.5,0.2-1.7-0.2c-0.7-0.2-0.8-0.3-0.9-0.6
		c0-0.2,0-0.3,0.2-0.3c0.1,0,0.2,0.1,0.1,0.2c-0.1,0.1,0,0.2,0.2,0.1c0.1,0,0.4,0,0.5,0c0.2,0.1,0.3,0.1,0.4,0s0.1-0.1-0.2-0.1
		c-0.3,0-0.3-0.1-0.3-0.4c0-0.2,0.1-0.4,0.1-0.4c0.1,0,0.1,0.1,0.1,0.3c0,0.5,1.2,0.8,2.8,0.8c0.3,0,0.6,0.1,0.7,0.1
		c0.1,0,0.3,0.1,0.5,0c0.3,0,0.4,0,0.5,0.1c0,0.1,0.2,0.2,0.3,0.2c0.1,0,0.6,0.1,1.1,0.3c0.5,0.2,0.9,0.3,1,0.3c0,0-0.3-0.2-0.7-0.5
		c-0.4-0.2-0.8-0.4-0.8-0.4c0,0,0.2,0,0.4,0c0.3,0.1,0.5,0,0.6-0.2c0.2-0.2,0.2-0.2,0.1,0.2l-0.1,0.4l0.4-0.3
		c0.3-0.2,0.4-0.2,0.5-0.1c0,0.1,0.2,0.3,0.4,0.4c0.2,0.2,0.3,0.3,0.3,0.4s0.1,0.2,0.2,0.3c0.2,0.2,0.2,0.2,0.2-0.3
		c0-0.3-0.1-0.5-0.3-0.6c-0.2-0.1-0.2-0.1,0-0.1c0.2,0,0.3,0.1,0.5,0.4c0.2,0.4,0.7,0.6,0.5,0.2c-0.1-0.2-0.1-0.2,0.1-0.1
		c0.1,0.1,0.1,0,0.1-0.1s0-0.2,0.1-0.2c0.2,0,0.2-0.1,0.2-0.2c-0.1-0.1,0-0.1,0.3,0.1c0.2,0.1,0.4,0.3,0.4,0.4c0,0.1,0,0.1,0.1,0.1
		c0.1,0,0.3,0,0.6,0c0.3,0,0.6,0,0.7-0.1c0.1-0.1,0.3-0.1,0.4-0.1c0.2,0,0.3-0.1,0-0.3c-0.3-0.2,0.3-0.3,0.8-0.1
		c0.6,0.2,1.3,0.2,1.4,0c0-0.1,0.2-0.1,0.4,0c0.3,0.1,0.5,0.1,0.7,0c0.2-0.1,2.2-0.1,2.6,0c0.2,0-0.9,0.3-1.3,0.3
		c-2.7,0-3.7,0.1-3.9,0.2c-0.2,0.1-0.4,0.2-0.4,0.2c-0.2,0-0.2,0.3,0,0.4c0.1,0.1,0.2,0.2,0.2,0.4c0,0.2,0.1,0.3,0.3,0.3
		c0.1,0,0.3,0.1,0.4,0.2c0.3,0.2,0.9,0.2,0.7,0c-0.1-0.1,0-0.2,0.2-0.1c0.2,0.1,0.3,0,0.2,0c-0.2-0.2,0.1-0.6,0.3-0.5
		c0.2,0.1,0.3,0,0-0.3c-0.2-0.3,0-0.5,0.4-0.3c0.2,0.1,0.3,0.1,0.4,0c0-0.1,0.2-0.1,0.4-0.1l0.3,0l-0.3,0.2
		c-0.2,0.1-0.4,0.2-0.5,0.2c-0.1,0-0.1,0.1,0.1,0.3c0.1,0.1,0.2,0.4,0.2,0.6c0,0.4,0.5,0.6,0.9,0.4c0.3-0.1,0.3-0.1,0.3,0.3
		c0,0.4,0,0.4,0.5,0.3c0.2,0,0.5-0.1,0.5-0.2c0-0.1,0-0.1-0.2-0.1c-0.2,0.1-0.3,0-0.5-0.1c-0.2-0.3-0.1-0.6,0.2-0.4
		c0.1,0.1,0.3,0.1,0.5,0.1c0.2,0,0.4,0,0.5,0.2c0.6,0.9,2,1.3,2.9,0.9c0.5-0.2,0.6-0.4,0.9-1c0-0.1,0.2-0.2,0.3-0.2
		c0.1,0,0.1-0.1-0.1-0.1c-0.1-0.1-0.3-0.3-0.4-0.4c-0.1-0.2-0.3-0.3-0.5-0.4c-0.2-0.1-0.4-0.2-0.6-0.3c-0.1-0.1-0.2-0.2-0.3-0.1
		c0,0.1-0.2,0.1-0.3,0.1c-0.2,0-0.3-0.1-0.4-0.7c-0.1-0.5-0.2-0.8-0.4-1c-0.5-0.4-0.3-0.5,0.4,0c0.8,0.5,1.4,0.5,0.7,0
		c-0.2-0.2-0.3-0.3-0.1-0.5c0.1-0.1,0.3-0.2,0.4-0.2c0.2,0,0.2-0.1,0.2-0.3c0-0.3,0-0.3,0.4-0.4c0.4,0,0.7-0.3,0.4-0.4
		c-0.3-0.1-1.1,0.2-1.2,0.6c0,0.2-0.2,0.3-0.3,0.4c-0.1,0-0.3,0.1-0.4,0.2c-0.2,0.2-0.2,0.1-0.4-0.5c-0.1-0.3-0.1-0.3-0.4-0.1
		c-0.3,0.2-0.3,0.2-0.3,0c0-0.4,0.1-0.5,0.5-0.5c0.3,0,0.4,0,0.5-0.2c0.1-0.1,0.1-0.4,0.1-0.5c0-0.2,0-0.2-0.2-0.1
		c-0.1,0.1-0.2,0.1-0.4,0c-0.1-0.1-0.2-0.1-0.4,0c-0.1,0.1-0.2,0.1-0.2,0.1c-0.3-0.4-0.5-0.8-0.5-0.8c0,0,0.2,0,0.4,0.1
		c0.3,0.1,0.4,0.1,0.4,0c0.1-0.2-0.2-0.3-0.7-0.3c-0.2,0-0.3-0.1-0.3-0.2c0-0.1-0.1-0.3-0.1-0.4c-0.1-0.1,0-0.2,0.3-0.2
		c0.4-0.1,0.4-0.4,0-0.5c-0.2,0-0.2,0-0.2,0.1c0.1,0.1,0,0.2-0.1,0.2c-0.1,0-0.2-0.1-0.3-0.2c0-0.1-0.1-0.2-0.2-0.2
		c-0.2,0-0.2,0.7,0.1,0.9c0.1,0.1,0.2,0.3,0.2,0.4c0,0.2,0,0.2-0.4-0.1c-0.2-0.1-0.5-0.3-0.5-0.3c-0.1,0-0.2-0.2-0.2-0.4
		c-0.1-0.3-0.1-0.3,0.2-0.3c0.2,0,0.3,0,0.2,0c-0.2-0.1,0.1-0.5,0.4-0.5c0.1,0,0.2-0.1,0.2-0.1c0-0.2-0.4-0.4-0.6-0.3
		c-0.2,0.1-0.5-0.3-0.3-0.4c0.1-0.1,0.5,0,0.5,0.2c0,0.1,0.1,0.1,0.1,0.1c0.1,0,0.1-0.2,0.1-0.4c0-0.3,0.2-0.4,0.5-0.2
		c0.1,0.1,0.2,0.1,0.2,0c0-0.1-0.3-0.3-0.7-0.5c-0.7-0.4-1.1-0.4-0.7-0.1c0.2,0.2,0,0.6-0.3,0.6c-0.4,0-0.5,0-0.3,0.3
		c0.2,0.3-0.1,0.5-0.3,0.2c-0.1-0.1-0.2-0.2-0.3-0.2c-0.2,0-0.2,0.4,0,0.5c0.1,0,0.1,0.1,0.1,0.2c0,0.1,0,0.1-0.4,0
		c-0.5-0.2-0.5-0.2-0.5,0.1c0,0.4-0.4,0.3-0.5-0.1l-0.1-0.3l-0.2,0.3c-0.1,0.2-0.2,0.4-0.2,0.5c0,0.2-0.2,0.2-0.3-0.1
		c-0.1-0.2-0.1-0.2-0.2-0.1c-0.1,0.1-0.3,0.1-0.6-0.1c-0.4-0.2-0.7-0.1-0.4,0.1c0.1,0.1,0.2,0.2,0.1,0.2c0,0.1,0,0.2,0.1,0.4
		c0,0.1,0.1,0.5,0.2,0.8c0.1,0.4,0.1,0.5-0.1,0.4c-0.2,0-0.2-0.1-0.2-0.4c0.1-0.2,0-0.5-0.1-0.6c-0.1-0.2-0.3-0.4-0.3-0.5
		c-0.1-0.2-0.1-0.1-0.2,0.3c-0.1,0.3-0.1,0.6,0,0.6c0.1,0.2,0.1,1.1,0,1.1c-0.2,0-0.4-0.4-0.2-0.5c0.1-0.1,0.1-0.2,0-0.3
		c-0.1-0.1-0.2-0.4-0.1-0.9c0.1-0.7,0.1-0.7-0.3-0.8c-0.2-0.1-0.5-0.2-0.6-0.4c-0.2-0.2-0.3-0.3-0.7-0.3c-0.4,0-0.4,0-0.4-0.3
		c0.1-0.2,0-0.3-0.1-0.3c-0.1,0-0.2-0.1-0.2-0.2c0-0.1-0.1-0.3-0.2-0.3c-0.1,0-0.2,0-0.1,0.1c0,0.1,0,0.2-0.1,0.2
		c-0.1,0,0,0.2,0.1,0.4c0.2,0.3,0.2,0.3,0,0.5c-0.2,0.1-0.1,0.2,0.1,0.4c0.1,0.1,0.3,0.2,0.4,0.1c0.3-0.1,0.6,0.3,0.5,0.9
		c0,0.3,0,0.7,0.1,0.7c0.2,0.1,0,0.5-0.2,0.5c-0.1,0-0.1-0.1,0-0.2c0.1-0.1,0-0.2-0.1-0.3c-0.1-0.1-0.2-0.3-0.1-0.6
		c0.1-0.5-0.1-0.8-0.5-0.8C146,7,146,7,146,7.1c0.1,0.1,0.1,0.4,0.2,0.7c0,0.3,0.1,0.6,0.2,0.7c0.2,0.2-0.3,0.6-0.7,0.6
		c-0.3,0-0.3,0.2,0.1,0.2c0.3,0.1,0.4,0.3,0.1,0.4c-0.5,0.1-0.6,0-0.6-0.8c0-0.7,0.1-0.9,0.4-0.6c0.1,0.1,0.2,0.1,0.2,0
		c0.1-0.1-0.1-0.2-0.3-0.4c-0.3-0.2-0.4-0.3-0.4-0.6c0-0.3-0.2-0.6-0.4-0.6c-0.1,0,0,1.5,0.2,1.6c0.4,0.3-0.2,0.4-0.9,0.1
		c-0.2-0.1-0.4-0.1-0.4,0c0,0.2-1,0-1.3-0.2c-0.1-0.1-0.2-0.1-0.3-0.1c-0.1,0.2-0.6,0-0.6-0.2c0-0.1,0.1-0.1,0.3-0.1
		c0.5,0.1,0.6,0.1,0.6-0.1c0-0.1-0.2-0.2-0.6-0.3c-0.5-0.1-0.5-0.1-0.3-0.3c0.2-0.1,0.3-0.1,0.3,0c0,0.1,0.3,0.1,0.7,0.1
		c0.4,0,0.6,0,0.6-0.1c0-0.1-0.3-0.1-0.5-0.1c-0.2,0-0.5-0.1-0.5-0.1c0-0.1-0.2-0.1-0.4-0.1c-0.5,0.1-0.4-0.1,0-0.6
		c0.2-0.2,0.5-0.3,0.6-0.3c0.2,0,0.3,0,0.3-0.1c0-0.1-0.1-0.1-0.1-0.1c-0.2,0,0-0.6,0.4-0.8c0.2-0.1,0.5-0.2,0.7-0.2
		c0.5,0,0.4-0.3-0.2-0.3c-0.5,0-0.7-0.3-0.4-0.6c0.2-0.2,0.2-0.2,0.3,0c0.1,0.2,0.2,0.2,0.4,0.2c0.2,0,0.4,0.1,0.5,0.1
		c0.2,0.2,0.4,0,0.2-0.2c-0.3-0.2,0-0.3,0.7-0.3c0.4,0,0.5,0.1,0.5,0.2c0,0.3,0.4,0.5,0.6,0.3c0.1-0.1,0.1-0.2-0.2-0.5
		c-0.3-0.3-0.3-0.4-0.1-0.6c0.2-0.2,0.1-0.4-0.2-0.4c-0.1,0-0.2-0.1-0.2-0.6c0-0.5,0-0.6-0.2-0.6c-0.2,0-0.2,0.1-0.1,0.6
		c0.1,0.6-0.1,0.9-0.4,0.6c-0.1-0.1-0.2-0.1-0.3-0.1c-0.1,0-0.2,0-0.3-0.1c0-0.1-0.2-0.1-0.4-0.1c-0.3,0-0.3,0-0.1,0.3
		c0.2,0.2,0.2,0.4,0.1,0.6c-0.1,0.3-0.3,0.3-0.4-0.1c0-0.2-0.1-0.3-0.6-0.2c-0.4,0-0.6,0-0.8-0.1c-0.2-0.2-0.6-0.2-0.6-0.1
		c0,0.1,0.1,0.1,0.2,0.2c0.2,0.1,0.2,0.2,0.1,0.3s-0.2,0.1-0.3,0c-0.1-0.1-0.2-0.3-0.3-0.4c-0.2-0.2-0.2-0.2-0.2,0
		c0,0.1,0.1,0.3,0.2,0.4c0.3,0.3,0.3,0.4-0.3,0.4c-0.5,0-0.6,0.1-0.3,0.3c0.2,0.1-0.2,0.5-0.6,0.5c-0.1,0-0.5,0.2-0.7,0.4
		c-0.3,0.3-0.5,0.4-0.6,0.3c-0.2-0.2-0.4-0.2-0.4,0c0,0.1,0.2,0.2,0.4,0.3c0.2,0.1,0.4,0.2,0.4,0.2c0,0.2-0.6,0.1-1.1-0.1
		c-0.5-0.2-0.7-0.1-0.5,0.2c0.1,0.2,0.1,0.2,0.3,0.1c0.3-0.2,0.4,0.1,0.4,0.5c0,0.6,0,0.6-0.3,0.4c-0.2-0.1-0.2-0.1-0.2,0.1v0.2
		l-0.3-0.2c-0.3-0.2-0.3-0.3-0.1-0.4c0.1-0.1,0.3-0.1,0.4-0.1c0.4,0.1,0.2-0.1-0.2-0.3c-0.3-0.1-0.4-0.2-0.4-0.5
		c0-0.4,0.2-0.5,0.5-0.5c0.5,0.1,0.3-0.2-0.2-0.3c-0.6-0.2-0.7-0.4-0.4-0.6c0.4-0.1,0.4-0.4,0-0.5c-0.2,0-0.3-0.2-0.3-0.3
		c-0.1-0.9-0.1-1.4,0-1.4c0.3-0.1,0.6,0.9,0.4,1.2c-0.1,0.1,0,0.2,0.1,0.2c0.3,0.1,0.5,0.1,0.5-0.3c0-0.3,0-0.3,0.4-0.3
		c0.5,0,0.5-0.2-0.1-0.3c-0.3-0.1-0.5-0.2-0.5-0.3c0-0.2,0-0.2,0.1-0.1c0.1,0.1,0.2,0.1,0.4,0c0.2-0.1,0.2-0.1,0.3,0
		c0,0.1,0.2,0.2,0.3,0.2c0.2,0,0.2-0.1,0.1-0.5c-0.1-0.6,0.1-0.6,0.4-0.1c0.2,0.6,0.3,0.6,0.5,0.4c0.1-0.1,0.4-0.2,0.7-0.3
		c0.4-0.1,0.5,0,0.6,0.2c0.2,0.2,0.1,0.2-0.5,0.2c-0.7,0-0.7,0-0.9,0.4c-0.2,0.5-0.1,0.6,0.6,0.6h0.4l-0.3-0.2
		c-0.2-0.1-0.3-0.3-0.3-0.4c0.2-0.3,0.6-0.1,0.7,0.2l0.1,0.3l0.2-0.3c0.2-0.3,0.6-0.6,0.9-0.5c0.3,0.1,0.4-0.1,0.2-0.3
		C141.4,2,141.5,2,142,1.9c0.5-0.1,0.6-0.1,0.6-0.5c0.1-0.2,0.2-0.4,0.2-0.4c0.1,0,0.1,0.2,0.1,0.3c-0.1,0.4,0,0.4,0.8,0.2
		c0.9-0.3,1.1-0.4,1-0.9c-0.1-0.4,0.1-0.6,0.3-0.2c0.1,0.2,0.1,0.2,0.3,0.1c0.2-0.1,0.3-0.1,0.4,0c0.2,0.2,0.7,0.2,0.6,0
		c0-0.1-0.1-0.2-0.2-0.3c0-0.1,0-0.2,0.1-0.2s0.2,0.1,0.3,0.3c0.1,0.4,0.5,0.6,1,0.4c0.3-0.1,0.4-0.2,0.3-0.4
		c-0.1-0.3,0.1-0.3,0.5-0.1c0.2,0.1,0.1,0.2-0.2,0.7c-0.4,0.5-0.4,0.6-0.1,0.6c0.3,0.1,0.6,0.3,0.6,0.6c0.1,0.3,0.1,0.3,0.2,0
		c0.1-0.1,0.3-0.3,0.5-0.3c0.2,0,0.5-0.1,0.6-0.2c0.1-0.1,0.4-0.2,0.7-0.3c0.3-0.1,0.6-0.3,0.6-0.3c0-0.4,0.5-0.3,1.1,0.2
		c0.6,0.4,0.7,0.6,0.7,0.9c0,0.3,0.1,0.5,0.5,0.8c0.5,0.4,0.5,0.4,0.6,0.2l0.1-0.2l0.8,0.2c0.5,0.1,0.9,0.3,1.1,0.5
		c0.5,0.4,0.9,0.4,1.6,0.2c0.7-0.3,0.9-0.5,1-1.1c0.1-0.3,0.2-0.7,0.2-1c0.1-0.6,0.3-0.7,1-0.9c0.3-0.1,0.7-0.2,0.8-0.3
		c0.3-0.3,0.3-0.5,0-0.8H0v6.6c0.1,0.1,0.1,0.1,0,0.2v4c0.5,0.2,0.6,0.3,0.6,0.6c0.1,0.2,0.1,0.6,0.2,0.8c0,0.2,0.2,0.5,0.4,0.7
		c0.2,0.2,0.3,0.5,0.3,1c0,0.5,0.1,1,0.3,1.5C2.1,16,2.1,16,3.2,16.6c2.2,1.1,2.8,1.2,4.7,0.6l1.2-0.4l1.2,0.1
		c1.3,0.1,1.3,0.2,1.7,0.7c0.2,0.2,0.4,0.4,0.7,0.4c0.3,0.1,0.4,0.1,0.4,0.3c0,0.3,0.4,0.2,0.6-0.2c0.2-0.4,0.4-0.5,0.5-0.2
		c0.1,0.1-0.1,0.4-0.3,0.7c-0.5,0.5-0.7,1.1-0.8,2.2c-0.2,1.5-0.1,2.2,0.1,2.7c0.2,0.4,0.2,0.5,0,0.6c-0.1,0.1-0.2,0.1-0.2,0
		c-0.1-0.2-0.5-0.1-0.5,0.1c0,0.3,0.2,0.3,1.1,0.1c0.9-0.3,1-0.3,1.5-0.9c0.3-0.3,0.6-0.5,0.7-0.6c0.2,0,0.3-0.2,0.3-0.3
		c0-0.2,0.1-0.2,0.3-0.1c0.3,0.1,1.5-0.4,1.9-0.9c0.2-0.2,0.4-0.3,0.5-0.2s-0.1,0.3-0.8,0.8c-0.8,0.6-1,0.8-1,1
		c0,0.5,0.3,0.9,0.8,1.2c0.3,0.1,0.6,0.5,0.8,0.7c0.2,0.2,1.1,1.2,2.1,2.2c2,2.1,3.3,3.5,3.5,4.1c0.1,0.3,0.2,0.4,0.4,0.3
		c0.2-0.1,1,0.9,1,1.2c0,0.1-0.3,0.3-0.6,0.4c-0.5,0.3-0.6,0.4-0.7,0.8c-0.1,0.4,0,0.6,0.2,0.9c0.4,0.5,0.5,0.5,0.6,0.2
		c0.1-0.3,1.5-1.7,1.7-1.7c0.2,0,1-0.7,1-0.8c0,0,0.1-0.3,0.2-0.5c0.2-0.4,0.2-0.4,0.5-0.2c0.4,0.2,0.5,0.1,0.3-0.2
		c-0.1-0.2-0.2-0.4-0.1-0.8c0.1-0.5-0.1-0.7-0.3-0.4c-0.1,0.2-0.1,0.2-0.3-0.3c-0.2-0.5-0.4-0.6-0.4-0.1c0,0.2-0.1,0.3-0.2,0.3
		c-0.3-0.1-0.1-0.7,0.2-1.2c0.2-0.2,0.2-0.4,0.2-0.6c-0.1-0.1,0-0.4,0-0.5L28,28l0.4,0.3c0.2,0.2,0.4,0.3,0.5,0.3
		c0.1,0,0.1-0.3,0-0.7c-0.1-0.7-0.1-0.7,0.2-0.9c0.2-0.1,0.3-0.2,0.3-0.7c0-0.6-0.2-0.7-0.3-0.1c-0.1,0.2-0.1,0.2-0.2,0.1
		c-0.1-0.1,0-0.3,0.2-0.6c0.3-0.4,0.3-0.4,0.5-0.2c0.2,0.2,0.2,0.1,0.2-0.2c0-0.5,0.2-0.2,0.4,0.4c0.2,0.9,0.4,0.7,0.3-0.4
		c0-0.5,0-1,0.1-1.1c0.2-0.2-0.3-0.4-0.9-0.4c-0.5,0-0.5,0-0.7-0.3c-0.2-0.3-0.1-0.3,0.2-0.3c0.3,0,0.4-0.1,0.4-0.3
		c0.1-0.3,0-0.9-0.2-1.1c-0.1-0.1-0.1-0.1,0-0.1c0.1,0,0.2,0.1,0.3,0.3c0.2,0.4,0.5,0.4,0.4,0c-0.1-0.4,0.1-0.6,0.3-0.3
		c0.1,0.1,0.4,0.2,0.7,0.2c0.5,0,1.9,0.3,2.3,0.4c0.1,0.1,0.5,0.1,0.8,0.1s0.6,0,0.6,0.1c0,0.1-0.1,0.1-0.3,0.1
		c-0.7,0,0.1,0.6,1,0.7c0.6,0.1,1.2,0.3,1.1,0.3c0,0-0.4,0-0.7-0.1c-0.4-0.1-0.9-0.1-1.1-0.1c-0.2,0-0.6,0-0.8-0.1
		c-0.3-0.1-0.4-0.1-0.6,0.1c-0.3,0.3-0.6,0.2-0.6-0.1c0-0.1-0.1-0.1-0.2-0.1c-0.3,0-0.3,0.1,0,0.6c0.2,0.2,0.2,0.3,0.1,0.4
		c-0.3,0.1,0,0.2,1.2,0.4c1.2,0.2,2.6,0.7,2.5,0.9c0,0.1,0,0.2-0.1,0.3c0,0.1,0.3,0.2,1.7,0.2c1.6,0,1.9,0.1,2.9,0.3
		c1.1,0.3,1.5,0.5,0.6,0.4c-0.5-0.1-0.5-0.1-0.3,0.2c0.1,0.2,0.3,0.3,0.5,0.3c0.2,0,0.6,0.1,0.9,0.2c0.4,0.1,0.5,0.2,0.3,0.3
		c-0.2,0.1-0.2,0.1,0,0.2c0.3,0.1,0.4,0.1,0.5,0c0-0.1,0.3,0,0.6,0.1c0.3,0.1,0.7,0.1,1,0.1c0.3,0,0.6,0,0.7,0
		c0.2,0.1,0.1,0.1-0.3,0.1l-0.6,0.1l0.8,0.3c0.4,0.2,0.9,0.3,1.2,0.3c0.2,0,0.4,0.1,0.4,0.1c0,0.1,0.1,0.2,0.2,0.3
		c0.2,0.1,0.2,0.3-0.2,0.3c-0.1,0-0.8-0.1-1.5-0.3c-1-0.2-1.3-0.4-1.4-0.6c-0.2-0.3-1.6-0.6-1.9-0.3c-0.3,0.2-0.4,0.1-0.2-0.2
		c0.1-0.1,0.1-0.2,0.1-0.3c-0.1-0.1-2-0.4-2.3-0.4c-0.4,0,0,0.2,0.9,0.4c0.9,0.2,0.9,0.2,0.8,0.4l-0.2,0.2l-0.2-0.2
		c-0.3-0.2-0.6-0.3-0.8-0.1c0,0.1,0.1,0.2,0.3,0.2c0.2,0.1,0.3,0.1,0.3,0.2c-0.1,0-0.3,0-0.5-0.1c-0.6-0.2-2.1-0.4-2.5-0.3
		c-0.3,0-0.5,0-0.6-0.1c-0.1-0.1-0.4-0.2-1-0.2c-0.5,0-0.9-0.1-1-0.1c-0.3-0.2-0.7-0.2-0.9,0c-0.3,0.2-0.2,0.4,0.1,0.4
		c0.1,0,0.2,0.1,0.2,0.1c0,0.2-1.3,0.3-1.4,0.1c-0.1-0.1-0.2-0.1-0.3,0c-0.1,0.1-0.3,0.1-0.4,0c-0.2-0.1-0.4,0-0.6,0.1
		c-0.5,0.3-0.3,0.5,0.3,0.2c0.5-0.2,0.8-0.1,0.8,0.5c0,0.2,0.1,0.5,0.2,0.5c0.1,0.1,0.2,0.1,0.5,0c0.2-0.1,0.4-0.1,0.6-0.1
		c0.2,0.1,0.3-0.2,0-0.3c-0.1-0.1-0.1-0.2-0.1-0.2c0.2-0.1,0.6,0.1,0.6,0.4c0,0.2,0.1,0.3,0.5,0.3c0.2,0,0.5,0.1,0.5,0.2
		c0,0.1,0,0.1-0.2,0c-0.2-0.1-0.4-0.1-0.6,0c-0.2,0-0.3,0.1-0.2,0.3c0.1,0.2,0,0.3-0.1,0.3c-0.3,0-0.4-0.2-0.4-0.5
		c0-0.2-0.1-0.2-0.9-0.1c-0.3,0-0.4,0.1-0.3,0.3c0.1,0.1,0,0.2-0.2,0.2c-0.2,0-0.1,0,0.2,0.1c0.2,0.1,0.6,0.1,0.7,0.1
		c0.3-0.1,1.8,0.4,2.4,0.7c0.3,0.2,0.4,0.2,0.2,0.3s-0.1,0.2,0.1,0.2c0.1,0-0.2,0-0.7,0c-0.8,0-0.9,0-0.7,0.1
		c0.1,0.1,0.6,0.2,1.1,0.3c0.5,0.1,0.9,0.2,0.9,0.2c0,0-0.2,0-0.5,0c-0.6-0.1-0.7-0.1-0.7,0c0,0.1,3,0.9,3.6,0.9
		c0.3,0,0.7,0,0.9-0.1c0.2-0.1,0.5-0.1,0.6-0.1s0.4-0.1,0.5-0.1c0.4-0.1,0.1-0.4-0.8-0.7l-0.7-0.2h0.8c0.9,0,1.4,0.2,1.4,0.7
		c0,0.2,0.1,0.2,0.3,0.2c0.2,0,0.2-0.1,0.2-0.1c-0.1-0.1,0.1-0.1,0.3-0.1c0.2,0,0.5,0,0.7-0.1c0.3-0.1,0.1-0.2-0.5-0.2
		c-0.5,0-0.6-0.5-0.2-0.8c0.2-0.2,0.5-0.3,1.2-0.3c1.3-0.1,2.2-0.1,2.5,0c0.2,0.1,0.2,0.1,0-0.2c-0.1-0.2-0.3-0.3-0.5-0.3
		c-0.5,0-0.2-0.3,0.2-0.3c0.3,0,0.5,0,0.7,0.3c0.1,0.2,0.2,0.4,0.2,0.5c0,0.2,0.3,0.3,1.1,0.3c0.5,0,0.6,0.1,0.6,0.2
		c0,0.1-0.1,0.2-0.2,0.1c-0.1-0.1-0.4-0.1-0.5-0.1c-0.1,0-0.6,0-1-0.1c-0.6-0.1-0.8-0.2-1.1-0.1c-0.3,0.1-0.3,0.1,0.4,0.4
		c0.5,0.2,1.2,0.4,1.8,0.4c0.2,0,0.5-0.1,0.7-0.2c0-0.2,0.2-0.2,0.7-0.2c0.5-0.1,0.9-0.2,1.3-0.4c-0.2,0-0.4-0.1-0.6-0.2
		c-1.2-0.3-1.5-0.4-1.1-0.5c0.1,0,0.4,0,0.7,0.1c0.5,0.2,0.8,0.1,0.7-0.2c0-0.1,0-0.2,0.1-0.3c0.2-0.1,1.3,0.2,1.5,0.4
		c0.1,0,0.1,0.1,0.2,0.1c0.1,0,0.2,0,0.2-0.1c0-0.1-0.2-0.4-0.7-0.7c-0.6-0.5-0.8-0.6-1.9-0.8c-0.8-0.2-1.4-0.2-1.6-0.2
		c-0.6,0.1-1.2,0.1-1.2,0c0-0.1,0.2-0.2,0.5-0.3c0.3-0.2,0.6-0.2,0.9-0.1c0.8,0.1,1.9,0.1,2,0.1c0.1,0,0-0.2-0.3-0.3l-0.4-0.2l1.1,0
		c0.6,0,1.3,0.1,1.5,0.1c0.2,0.1,0.8,0.1,1.2,0.2c0.6,0,0.8,0,0.9-0.1c0.1-0.2,0.7-0.2,1.5,0.2c0.4,0.2,0.8,0.3,0.9,0.3
		c0,0-0.2-0.3-0.5-0.5c-0.3-0.2-0.6-0.4-0.6-0.5s0.5,0,1.1,0c1.1,0.1,1.8,0,1.2-0.2c-0.1,0-0.5-0.1-0.7-0.1C58.2,28,58,28,58,27.8
		c-0.1-0.2-0.3-0.2-1.1-0.4c-0.6-0.1-1.1-0.2-1.3-0.2c-0.3,0-0.3,0,0,0.1c0.2,0.1-0.1,0.1-1.1-0.1c-0.8-0.2-1.4-0.2-1.6-0.2
		c-0.4,0.1-5.6-0.9-6-1.3c-0.2-0.1-0.6-0.1-0.6,0c0,0.1-0.2,0.1-0.5,0.1c-0.8,0-0.2,0.2,0.9,0.3c0.7,0.1,1.4,0.2,2.1,0.5
		c0.9,0.3,1.5,0.6,1.2,0.6c-0.3,0-3.1-0.7-3.2-0.8c-0.1-0.1-0.5-0.1-0.8-0.1c-0.6,0-1.5-0.3-1.3-0.4c0-0.1,0-0.2-0.1-0.2
		c-0.1-0.1,0-0.1,0.6-0.1c0.6,0,0.7,0,0.6-0.1c-0.1-0.1,0-0.1,0.4-0.1c0.4,0.1,0.5,0,0.4-0.1c-0.1-0.1,0-0.2,0.1-0.2
		c0.1,0,0.2,0,0.2,0.1c0,0.2,0.5,0.3,1.7,0.5c1,0.1,1.3,0.2,1.9,0.5c0.4,0.2,0.8,0.4,1,0.4h0.4l-0.4-0.3c-0.2-0.1-0.3-0.3-0.3-0.3
		c0.3,0,1.4,0.3,1.7,0.6c0.3,0.2,0.4,0.2,0.7,0.1c0.3-0.1,0.5-0.1,1.5,0c1.6,0.2,1.7,0.2,1.7-0.1c0-0.3,0.1-0.3,1.1,0
		c0.8,0.3,1.7,0.3,1.7,0.1c0-0.1,0.1-0.1,0.3-0.2c0.2-0.1,0.3-0.1,0.1-0.2s-0.1-0.1,0.6-0.1c0.7,0.1,0.9,0,0.6-0.3
		c-0.1-0.1-0.1-0.1,0-0.1s0.2-0.1,0.3-0.3c0.1-0.2,0.2-0.2,0.6-0.1c0.2,0.1,0.5,0.1,0.5,0c0.1,0,0-0.1-0.1-0.1
		c-0.4-0.1-0.1-0.2,0.7-0.3c0.6,0,1,0,1.2,0c0.4,0.1,0.5,0,0.3-0.2c-0.2-0.2,0-0.2,1.3,0c0.5,0.1,1.2,0.2,1.6,0.2
		c0.3,0,0.9,0.1,1.3,0.2c0.9,0.2,1.3,0.2,1.1,0c-0.1-0.1-0.1-0.1,0.2-0.1c0.2,0,0.4,0,0.5,0c0.2-0.4,0.5-0.7,0.8-1
		c-0.2,0-0.4,0-0.6-0.1c-0.8-0.1-1.7-0.2-2-0.2c-0.5-0.1-0.5-0.1-0.2-0.3c0.1-0.1,0.4-0.1,0.6-0.1c0.4,0.1,0.5-0.1,0.2-0.3
		c-0.2-0.1-0.3-0.2-0.2-0.3c0.1-0.1,0.6,0.1,0.7,0.4c0.1,0.2,0.1,0.2,0.3,0.1c0.2-0.1,1.5-0.1,1.6,0c0.1,0.1,0.2,0.1,0.3,0
		c0.1-0.1,0.4-0.1,0.7-0.2c0.1,0,0.1,0,0.1,0c0.1,0,0.2-0.1,0.3-0.1c-0.1-0.1-0.7-0.1-1.8-0.2L69.8,23l0.1-0.3c0-0.2,0-0.3,0-0.4
		c-0.1-0.1-0.1-0.6,0-0.6c0.2,0,0.6,0.3,0.6,0.5c0,0.1,0.2,0.1,0.6,0.1c0.3,0,0.8,0,1.1,0.1c0.6,0.1,2.3,0,1.9-0.1
		c-0.1-0.1-0.3-0.1-0.3-0.2c0-0.2,1.7,0,1.8,0.1c0.1,0.1,0.2,0.1,0.4,0c0.5-0.2,1-0.1,0.9,0.2c-0.1,0.2,0,0.2,0.2,0.2
		c0.2,0,0.4-0.1,0.5-0.2c0.2-0.1,0.2-0.1,0.3,0c0.1,0.2,0.1,0.2,0.3,0c0.2-0.2,0.2-0.2,0.6,0c0.3,0.1,0.4,0.1,0.6,0.1
		c0.1-0.1,0.3-0.1,0.5-0.1c0.1,0,1,0.1,1.8,0.3c1.2,0.2,1.6,0.3,1.8,0.4c0.2,0.2,0.6,0.3,0.6,0c0-0.1,0.2-0.1,0.7,0.2
		c0.6,0.3,0.8,0.3,1.1,0.2c0.3-0.1,0.3-0.2,0.3-0.4c0-0.2-0.2-0.2-0.7-0.3c-0.4,0-0.8-0.1-0.8-0.2c-0.2-0.1,0-0.1,0.8-0.1
		c0.9,0.1,1,0,1.2-0.2c0.2-0.2,0.2-0.2,0.3-0.1c0.3,0.5,1.2,0.8,1.2,0.3c0-0.2,0.3-0.3,1,0c0.3,0.1,0.8,0.2,1.2,0.2
		c1.3,0.1,2.1,0.2,2.3,0.3c0.1,0.1,0.3,0.1,0.5,0.1c0.2,0,0.3,0.1,0.3,0.2c0,0.1,0.1,0.2,0.1,0.2c0.1,0,0.1,0.1,0.1,0.2
		c0,0.1,0.1,0.2,0.2,0.2S94,24.1,94,24c0-0.1,0.1,0,0.3,0.1c0.2,0.1,0.5,0.2,0.6,0.2c0.2,0,0.3,0,0.4,0.1c0.1,0.1,0,0.5-0.2,0.6
		c0.2,0.1,0.5,0.1,0.7,0.2c0.3,0,0.4,0,0.5-0.3l0.2-0.4l1.7,0c0.9,0,2.5,0.1,3.3,0.2c1.6,0.2,1.6,0.2,1.9,0c0.3-0.2,0.3-0.8,0.1-0.8
		c-0.1,0-0.3,0.1-0.5,0.3l-0.4,0.3l-1.5-0.1c-1.1-0.1-1.6-0.2-1.8-0.3c-0.2-0.1-0.5-0.2-0.8-0.3c-0.5-0.1-0.8-0.3-0.4-0.3
		c0.1,0,0.1-0.2,0.1-0.4c0-0.2,0.1-0.4,0.3-0.4c0.2-0.1,0.2-0.1,0-0.2c-0.3-0.1-0.3-0.8,0-0.9c0.1-0.1,0.2-0.3,0.2-0.4
		c0-0.4,0.1-0.5,0.6-0.2c0.2,0.1,0.7,0.2,1.1,0.3s0.9,0.1,1,0.1c0.2,0.1,0.3,0,0.5-0.7c0.1-0.3,0.1-0.3-0.2-0.3
		c-0.4,0-0.7,0.4-0.4,0.5c0.1,0-0.1,0.1-0.4,0.1c-0.7,0-0.8-0.3-0.4-0.8c0.2-0.2,0.3-0.4,0.2-0.4c0,0-0.5,0-1,0.1
		C98.9,19.9,98.8,20,99,20c0.5,0.2,0.8,0.5,0.8,0.5c-0.1,0.1-0.6-0.1-1-0.2c-0.1-0.1-0.4-0.1-0.6-0.2c-0.4-0.1-0.4-0.1-0.2-0.4
		c0.1-0.2,0.2-0.3,0.2-0.4c0,0-0.3-0.1-0.6-0.1c-0.7-0.1-0.8-0.2-0.6-0.5l0.2-0.2l0.3,0.2c0.2,0.2,0.4,0.2,0.7,0.1
		c0.4-0.1,0.5-0.2,0.2-0.3c-0.1,0-0.1-0.1,0.1-0.3c0.4-0.3,0.2-0.6-0.4-0.5c-0.3,0-0.5,0.1-0.5,0.1c0,0-0.4,0-0.7-0.1
		c-0.7-0.1-1.1-0.3-0.6-0.3c0.2,0,0.3,0,0.4,0.1c0.1,0.2,0.5,0.1,0.6-0.1c0.1-0.2,0.2-0.2,0.8-0.2c0.8,0,1.1,0.1,1.1,0.5
		c0,0.1,0.1,0.3,0.2,0.4s0.2,0.2,0.2,0.3c0,0.2,0.8,0.2,1,0c0.1-0.1,0.3-0.2,0.4-0.2c0.2,0,0.2,0,0.1-0.1c-0.1-0.1-0.2-0.2-0.2-0.2
		c0-0.2,1.7,0,2.6,0.2c0.6,0.2,1.2,0.2,2.2,0.2h1.3l-0.1-0.4c-0.1-0.2-0.1-0.4-0.1-0.4c-0.1-0.1-0.6,0.1-0.8,0.4
		c-0.1,0.2-0.3,0.3-0.4,0.3c-0.3,0-0.4-0.5-0.1-0.6c0.1,0,0.2-0.2,0.2-0.3s0.1-0.2,0.2-0.2c0.4,0,1.4-0.3,1.4-0.4
		c0-0.1-0.9-0.3-1.2-0.3c-0.1,0-0.1,0.1,0,0.2c0.1,0.2,0.1,0.2-0.1,0.1c-0.5-0.1-0.9-0.2-1-0.1c-0.1,0.1,0,0.1,0.1,0.2
		c0.2,0.1,0.2,0.2-0.1,0.3c-0.2,0-0.3,0.1-0.3,0.3c0,0.2-0.1,0.2-0.9,0.2c-0.5,0-1.2-0.1-1.6-0.2c-0.5-0.1-0.6-0.2-0.7-0.4
		c0-0.2,0.1-0.5,0.3-0.8c0.5-0.7,0.5-1,0-1c-0.2,0-0.5,0-0.7,0c-0.3-0.1-0.7,0.5-0.8,1.1c0,0.3,0,0.3-0.2,0.1
		c-0.1-0.1-0.3-0.3-0.5-0.3c-0.2,0-0.4-0.1-0.5-0.3c0-0.1-0.2-0.2-0.7-0.2c-0.4,0-0.9-0.1-1.2-0.1c-0.6-0.1-0.6,0.1,0,0.2
		c0.2,0,0.5,0.1,0.6,0.2c0.2,0.2,0.1,0.2-0.3,0c-0.2-0.1-0.3-0.1-0.5,0c-0.2,0.2-0.6,0-0.7-0.2c-0.1-0.2-0.1-0.2-1.4-0.2
		c-1,0-1.4-0.2-0.5-0.2c0.5,0,0.4-0.1-0.3-0.2c-0.4-0.1,0.5-0.7,0.9-0.6c0.4,0.1,0.6-0.1,0.1-0.3c-0.2-0.1-0.7-0.1-1.2-0.2
		c-0.5-0.1-0.9-0.2-1-0.3c-0.1-0.1-0.7-0.3-1.4-0.4c-0.7-0.1-2.2-0.4-3.3-0.6c-1.1-0.2,3.5-1.5,3.5-1.6 M94.7,10.2
		c1.6-0.1,3.2-0.1,3.5,0c0.4,0.1,0.3,0.2-0.2,0.3c-0.3,0-0.4,0.1-0.5,0.2 M144.3,3.2c0.1,0,0.2,0,0.2-0.1c0-0.1,0.1-0.1,0.1-0.1
		c0.1,0,0.2,0.2,0.3,0.3c0.1,0.2,0.1,0.2-0.3,0.2c-0.3,0-0.5-0.1-0.5-0.2C144.1,3.2,144.2,3.2,144.3,3.2z"/>
	<path d="M160.5,21.2c0.1,0,0.1,0,0.1,0c0-0.1-0.1-0.1-0.1-0.1c-0.1,0-0.1,0-0.1,0C160.4,21.1,160.4,21.2,160.5,21.2z"/>
	<path d="M160.4,14.2c0.1,0,0.1-0.1,0.1-0.3c0-0.2-0.1-0.3-0.4-0.3l-0.3,0l0.3,0.3C160.2,14,160.3,14.2,160.4,14.2z"/>
	<path d="M159.9,20.7c0-0.1-0.2-0.1-0.4-0.1c-0.3,0-0.4,0-0.2,0.1c0.1,0.1,0.3,0.1,0.4,0.1C159.9,20.8,159.9,20.8,159.9,20.7z"/>
	<path d="M159.7,14.4c0.2,0,0.2,0,0.2-0.1C159.9,14.3,159.7,14.3,159.7,14.4C159.5,14.3,159.6,14.4,159.7,14.4z"/>
	<path d="M159.6,11.9c0.6-0.1,0.5-0.4-0.1-0.5c-0.6-0.1-0.8,0-0.8,0.2C158.7,11.8,159.1,11.9,159.6,11.9z"/>
	<path d="M159.3,11.2c0.3,0.1,0.5,0.1,0.6,0.1c0,0,0-0.1,0-0.3c-0.1-0.2-0.2-0.3-0.3-0.3c-0.1,0-0.3,0-0.5,0
		C158.7,10.8,158.8,11,159.3,11.2z"/>
	<path d="M159.7,21.8c-0.1,0-0.1,0-0.1,0.1c0,0.1,0.1,0.1,0.1,0.1c0.1,0,0.1-0.1,0.1-0.1C159.8,21.8,159.7,21.8,159.7,21.8z"/>
	<path d="M159.7,13c-0.1,0-0.1,0-0.1,0.1c0,0.1,0.1,0.1,0.1,0.1c0.1,0,0.1-0.1,0.1-0.1C159.8,13,159.7,13,159.7,13z"/>
	<path d="M159.3,24.2c0.1,0,0.2,0,0.2-0.1c0-0.1-0.4-0.3-0.5-0.2C158.9,24,159.1,24.2,159.3,24.2z"/>
	<path d="M159.1,22.5c0.1,0.1,0.3,0.1,0.3,0.1c0.2-0.1,0.1-0.1-0.2-0.1C159,22.4,158.9,22.5,159.1,22.5z"/>
	<path d="M159.4,13.5c-0.1,0-0.1,0-0.1,0.1c0,0.1,0.1,0.2,0.1,0.2c0.1,0,0.1,0,0.1-0.1C159.5,13.6,159.5,13.5,159.4,13.5z"/>
	<path d="M159.3,23.1c-0.1,0-0.2,0-0.2,0c-0.1,0.1,0,0.4,0.2,0.4C159.4,23.5,159.4,23.2,159.3,23.1z"/>
	<path d="M159.3,14.8c0,0-0.2,0-0.3,0c-0.1,0-0.1,0.1,0.1,0.1C159.3,14.9,159.4,14.9,159.3,14.8z"/>
	<path d="M158.8,12.9c-0.7-0.3-0.9-0.1-0.2,0.2c0.3,0.1,0.6,0.2,0.6,0.2C159.5,13.3,159.4,13.1,158.8,12.9z"/>
	<path d="M157.9,13.5c-0.5,0-0.6,0-0.6-0.1c0-0.2-0.3-0.2-0.4,0.1c-0.1,0.3,0.1,0.4,0.8,0.5c0.4,0,0.6,0,0.6-0.1
		c0-0.1,0.1-0.1,0.3,0c0.1,0.1,0.3,0.1,0.4,0C159.1,13.6,158.4,13.4,157.9,13.5z"/>
	<path d="M158.2,24c-0.1,0.1,0.3,0.4,0.4,0.3c0.1,0,0.1-0.1,0.1-0.2C158.7,24,158.3,23.9,158.2,24z"/>
	<path d="M158.3,14.2c-0.2,0-0.2,0-0.2,0.1c0,0.1,0.2,0.2,0.3,0.2c0.2,0,0.2,0,0.2-0.1C158.6,14.3,158.5,14.2,158.3,14.2z"/>
	<path d="M158,23.2c0.2,0.1,0.3,0.2,0.4,0.2c0.1,0,0.1-0.1,0.1-0.2c0-0.1-0.1-0.2-0.4-0.2C157.8,23.1,157.8,23.1,158,23.2z"/>
	<path d="M158.4,11.9c0.2-0.1,0.2-0.6,0-0.6c-0.1,0-0.2,0.1-0.3,0.1C158,11.6,158.2,12,158.4,11.9z"/>
	<path d="M158.1,4.9C158,4.9,158,5,158,5c0,0.1,0.1,0.1,0.1,0.2c0.1,0,0.1,0,0.1-0.1C158.3,5,158.2,4.9,158.1,4.9z"/>
	<path d="M157.8,5.8c-0.1,0-0.1,0.2-0.1,0.3c0,0.3,0,0.3,0.1,0.2C158,6.1,158,5.8,157.8,5.8z"/>
	<path d="M157.8,12.2c0-0.1-0.1-0.2-0.2-0.1c-0.3,0-0.3,0.2,0,0.3C157.7,12.4,157.8,12.3,157.8,12.2z"/>
	<path d="M157.3,23.7c-0.4-0.1-0.8,0-0.5,0.1c0.1,0.1,0,0.1-0.3,0.1c-0.3,0-0.5,0-0.5,0.1c0.2,0.2,0.8,0.2,1.2,0.1
		C157.8,24,157.8,23.9,157.3,23.7z"/>
	<path d="M157.6,22.8c0.2-0.1,0.2-0.2-0.1-0.2c-0.1,0-0.2,0.1-0.1,0.1C157.4,22.8,157.5,22.8,157.6,22.8z"/>
	<path d="M156.8,5.4c-0.2,0.2-0.2,0.6,0,0.5c0.1,0,0.1-0.2,0.1-0.3C157,5.3,157,5.2,156.8,5.4z"/>
	<path d="M156.8,4.4c-0.1,0-0.1,0.1-0.1,0.2c0,0.1,0.1,0.1,0.1,0.1c0.1,0,0.1-0.1,0.1-0.2C157,4.4,156.9,4.3,156.8,4.4z"/>
	<path d="M156.5,18.6c-0.1,0-0.2,0-0.2,0.1c0,0.1,0.1,0.1,0.3,0.1c0.2,0,0.2-0.1,0.2-0.1C156.7,18.7,156.6,18.6,156.5,18.6z"/>
	<path d="M155.9,19.5c0,0,0.2,0,0.3,0c0.2-0.1,0.2-0.1,0-0.1C155.9,19.3,155.8,19.4,155.9,19.5z"/>
	<path d="M155.9,17.6c0.2,0,0.2-0.1,0.2-0.1c0-0.1-0.2-0.1-0.3-0.1c-0.1,0-0.2,0-0.2,0.1C155.6,17.5,155.7,17.6,155.9,17.6z"/>
	<path d="M155.6,8.4c-0.2,0-0.4,0-0.4,0.1c0,0.1,0.2,0.1,0.4,0.1s0.4-0.1,0.4-0.1C156,8.5,155.8,8.4,155.6,8.4z"/>
	<path d="M155.6,7.1c0.3,0.2,0.4,0.1,0.2-0.2c-0.1-0.2-0.5-0.2-0.5-0.1C155.3,6.9,155.4,7,155.6,7.1z"/>
	<path d="M155.4,18c-0.2,0-0.2,0-0.2,0.1c0,0.1,0.2,0.1,0.3,0.1c0.1,0,0.2-0.1,0.2-0.1C155.7,18,155.6,18,155.4,18z"/>
	<path d="M155.4,5.5c-0.2,0.1,0,0.3,0.2,0.3c0.1,0,0.1-0.1,0.1-0.2C155.6,5.6,155.5,5.5,155.4,5.5z"/>
	<path d="M155.5,4.4c0.1,0,0.1,0,0.1-0.1c0-0.1-0.2-0.2-0.2-0.2C155.2,4.1,155.3,4.3,155.5,4.4z"/>
	<path d="M155.3,19.3c-0.1,0-0.1,0.1-0.1,0.2c0.1,0.1,0.1,0.2,0.1,0.2c0,0,0.1-0.1,0.1-0.2C155.4,19.3,155.4,19.3,155.3,19.3z"/>
	<path d="M154.9,4.7c-0.3-0.1-0.5,0-0.3,0.1c0.1,0.1,0.2,0.1,0.3,0C155.1,4.8,155.1,4.8,154.9,4.7z"/>
	<path d="M154.7,16.8C154.6,16.9,154.6,16.9,154.7,16.8c0.2,0.1,0.3,0,0.3,0C154.9,16.8,154.8,16.8,154.7,16.8z"/>
	<path d="M154.4,17.5c-0.1,0-0.2,0-0.1,0.1c0,0.1,0.2,0.1,0.3,0.1c0.1,0,0.2-0.1,0.1-0.1C154.6,17.5,154.5,17.5,154.4,17.5z"/>
	<path d="M154.7,4.1c0-0.1-0.1-0.1-0.3-0.1s-0.4-0.1-0.6-0.1c-0.1-0.1-0.3-0.1-0.4,0c-0.2,0.1,0.4,0.4,0.8,0.4
		C154.5,4.2,154.7,4.2,154.7,4.1z"/>
	<path d="M153.7,4.5c0,0.1,0.1,0.2,0.1,0.1c0.1,0,0.1-0.1,0-0.2C153.8,4.2,153.7,4.3,153.7,4.5z"/>
	<path d="M153.4,16.9c-0.2,0-0.3,0-0.3,0.1c0,0.1,0.2,0.1,0.4,0.1c0.1,0,0.3-0.1,0.3-0.1C153.7,17,153.6,16.9,153.4,16.9z"/>
	<path d="M153.2,16.4c0-0.1-0.1-0.2-0.1-0.3c-0.1,0-0.1,0-0.1,0.1s0.1,0.2,0.1,0.3C153.1,16.6,153.2,16.5,153.2,16.4z"/>
	<path d="M153,4.3c-0.1,0-0.1,0.1-0.1,0.2c0,0.1,0.1,0.2,0.1,0.2c0.1,0,0.1-0.1,0.1-0.2C153.2,4.4,153.1,4.3,153,4.3z"/>
	<path d="M152.9,5c-0.1,0-0.1,0.1-0.1,0.2c0,0.1,0.1,0.1,0.1,0.1c0.1,0,0.1-0.1,0.1-0.2C153,5,153,5,152.9,5z"/>
	<path d="M152.7,17.5c-0.1,0-0.1-0.2-0.1-0.4c0-0.2-0.1-0.3-0.2-0.3c-0.2,0.1-0.7-0.1-0.7-0.2c0-0.1,0.2-0.1,0.4-0.1
		c0.2,0,0.4-0.1,0.4-0.1c0-0.1-0.2-0.1-0.6-0.1c-0.3,0-0.6,0-0.7-0.1c-0.1-0.1-0.2,0-0.2,0.2c0,0.2-0.1,0.3-0.2,0.2
		c-0.1,0-0.3,0-0.5,0c-0.2,0.1-0.2,0.1,0,0.2c0.2,0.1,0.2,0.1-0.1,0.3c-0.4,0.3-0.5,0.3-0.2,0.3c0.1,0,0.2,0.1,0.2,0.1
		c0,0.2,0.6,0.6,1,0.6c0.2,0,0.6-0.1,0.9-0.3C152.9,17.7,153,17.6,152.7,17.5z"/>
	<path d="M152.9,2.9c0-0.1-0.1-0.1-0.1-0.1c-0.1,0-0.1,0-0.1,0.1c0,0.1,0.1,0.1,0.1,0.1C152.8,3,152.9,3,152.9,2.9z"/>
	<path d="M152.2,5.4c-0.4-0.1-0.6-0.2-0.6,0c0,0.1,0.8,0.5,0.9,0.4C152.7,5.6,152.6,5.5,152.2,5.4z"/>
	<path d="M152.1,4.3c0,0,0.2,0,0.3,0c0.2-0.1,0.2-0.1,0-0.1C152.1,4.1,151.9,4.2,152.1,4.3z"/>
	<path d="M152.1,3.5c0,0.1,0.1,0.1,0.2,0.1c0.1,0,0.1-0.1,0.1-0.1c0-0.1-0.1-0.1-0.2-0.1C152.1,3.4,152.1,3.4,152.1,3.5z"/>
	<path d="M151.8,15.4c0.2,0,0.4-0.1,0.4-0.1c0-0.1-0.2-0.1-0.4-0.1c-0.2,0-0.4,0-0.4,0.1C151.3,15.4,151.5,15.4,151.8,15.4z"/>
	<path d="M151.9,6.2c0,0.1,0.1,0.2,0.1,0.1c0.1,0,0.1-0.1,0-0.2C152,5.9,151.9,6,151.9,6.2z"/>
	<path d="M152,2.9c0.1,0,0.1-0.1,0.1-0.2c0-0.1-0.1-0.2-0.1-0.2c-0.1,0-0.1,0.1-0.1,0.2C151.9,2.9,152,2.9,152,2.9z"/>
	<path d="M151.9,15.7c0,0-0.1,0.1,0,0.2c0,0.1,0.1,0.1,0.1-0.1C152,15.7,152,15.6,151.9,15.7z"/>
	<path d="M151.8,4.7c-0.1-0.1-0.1-0.1-0.2,0c-0.2,0.1,0,0.3,0.2,0.2C151.8,4.9,151.9,4.8,151.8,4.7z"/>
	<path d="M151.2,5.9c-0.2,0-0.2,0-0.2,0.1c0,0.1,0.2,0.1,0.3,0.1c0.1,0,0.2-0.1,0.2-0.1C151.5,5.9,151.3,5.9,151.2,5.9z"/>
	<path d="M151.3,3c-0.1,0.1-0.1,0.2,0,0.3c0.1,0.1,0.2,0.1,0.2-0.1S151.4,2.9,151.3,3z"/>
	<path d="M150.9,2.6c0.1,0.1,0.3,0.1,0.4,0c0.2-0.1,0.2-0.1-0.1-0.2C150.9,2.4,150.6,2.5,150.9,2.6z"/>
	<path d="M151,27.6"/>
	<path d="M150.5,16.3c0.1,0,0.1-0.1,0.1-0.1c0-0.1,0.2-0.1,0.4-0.1c0.4,0,0.5-0.1,0.2-0.3c-0.2-0.1-0.9,0.1-0.9,0.3
		C150.3,16.2,150.4,16.3,150.5,16.3z"/>
	<path d="M151.2,5.6c0-0.1-0.1-0.1-0.1-0.1c-0.1,0-0.1,0-0.1,0.1c0,0.1,0.1,0.1,0.1,0.1C151.1,5.7,151.2,5.6,151.2,5.6z"/>
	<path d="M151,4.5c-0.1-0.1-0.3-0.1-0.4-0.1c-0.3,0.1-0.2,0.3,0.2,0.3C151.2,4.6,151.2,4.6,151,4.5z"/>
	<path d="M151,2.1c0.1,0,0.1-0.1,0.1-0.3c0-0.2-0.1-0.3-0.1-0.3c-0.1,0-0.1,0.2-0.1,0.3C150.9,2,151,2.1,151,2.1z"/>
	<path d="M150.8,18.5c0,0-0.1,0.1,0,0.2c0,0.1,0.1,0.1,0.1-0.1C150.9,18.6,150.9,18.5,150.8,18.5z"/>
	<path d="M150.5,6.4c-0.1,0-0.1,0-0.1,0.1c0,0.1,0.1,0.1,0.2,0.1c0.1,0,0.2-0.1,0.1-0.1C150.6,6.5,150.6,6.4,150.5,6.4z"/>
	<path d="M150.5,3.8c0,0.1,0.1,0.1,0.1,0.1c0.1,0,0.1-0.1,0.1-0.1c0-0.1-0.1-0.1-0.1-0.1C150.6,3.7,150.5,3.7,150.5,3.8z"/>
	<path d="M150.5,5.4c0.2-0.1,0.1-0.3-0.1-0.3c-0.1,0-0.6-0.1-0.9-0.2c-0.6-0.1-0.7-0.1-1.1,0c-0.2,0.1-0.4,0.2-0.4,0.3
		c0,0.1,0.1,0.2,0.7,0.2c0.4,0,0.8-0.1,1-0.1c0.2-0.1,0.3,0,0.5,0.1C150.3,5.4,150.5,5.4,150.5,5.4z"/>
	<path d="M150.2,3.2c-0.1,0.1-0.1,0.1,0.2,0.1s0.3,0,0.2-0.1C150.4,3.1,150.3,3.1,150.2,3.2z"/>
	<path d="M150.2,2.7c0.1,0,0.1-0.1,0.1-0.2s-0.1-0.2-0.1-0.2c-0.1,0-0.1,0.1-0.1,0.2S150.1,2.7,150.2,2.7z"/>
	<path d="M149.9,16.6c-0.1,0-0.1,0.1-0.1,0.2c0,0.1,0.1,0.3,0.1,0.3c0.1,0,0.1-0.1,0.1-0.2C150.1,16.7,150,16.6,149.9,16.6z"/>
	<path d="M149.6,3.8c0,0.1,0.2,0.1,0.3,0.1c0.2,0,0.2,0,0-0.2C149.6,3.6,149.4,3.6,149.6,3.8z"/>
	<path d="M149.8,18.2c-0.1,0-0.1,0.1-0.1,0.1c0,0.1,0.1,0.1,0.1,0c0.1,0,0.1-0.1,0.1-0.1C149.9,18.2,149.9,18.2,149.8,18.2z"/>
	<path d="M149.6,6.3c-0.1,0-0.1,0.1-0.1,0.2c0,0.1,0.1,0.2,0.1,0.2c0.1,0,0.1-0.1,0.1-0.2C149.8,6.4,149.7,6.3,149.6,6.3z"/>
	<path d="M149.5,2.9c0,0-0.1,0.1-0.1,0.2c0,0.1,0.1,0.2,0.1,0.2c0.1,0,0.1-0.1,0.1-0.2C149.6,3,149.6,2.9,149.5,2.9z"/>
	<path d="M149.6,5.8c0-0.1-0.9-0.1-0.9,0.1c0,0.1,0.1,0.1,0.5,0.1C149.4,5.9,149.6,5.8,149.6,5.8z"/>
	<path d="M148.6,4.3c-0.1,0.1,0.1,0.1,0.5,0.1c0.3,0,0.6-0.1,0.6-0.1c0-0.1-0.2-0.1-0.5-0.1S148.6,4.2,148.6,4.3z"/>
	<path d="M149.5,2.5c0.1,0,0.2,0,0.1-0.1c0-0.1-0.1-0.2-0.2-0.2c-0.1,0-0.2,0-0.1,0.1C149.3,2.4,149.4,2.5,149.5,2.5z"/>
	<path d="M149.3,16.9c-0.1,0-0.2,0-0.1,0.1c0,0.1,0.1,0.1,0.2,0.1c0.1,0,0.1-0.1,0.1-0.1C149.5,17,149.4,16.9,149.3,16.9z"/>
	<path d="M149.3,15.6C149.3,15.6,149.3,15.6,149.3,15.6c0,0.2,0.1,0.3,0.1,0.3C149.5,15.9,149.5,15.7,149.3,15.6z"/>
	<path d="M147.2,3.1c0.6,0,1.3,0.2,1.3,0.4c0,0.1-0.1,0.1-0.4,0c-0.2,0-0.4,0-0.4,0c0,0.1,0.4,0.2,0.9,0.2c0.6,0,0.6,0,0.3-0.5
		c-0.2-0.2-0.3-0.4-0.5-0.4c-0.2,0-0.6-0.1-0.9-0.1c-0.5-0.1-0.6-0.1-0.8,0C146.6,3,146.7,3,147.2,3.1z"/>
	<path d="M148.7,6.3c-0.1,0-0.2,0-0.1,0.1c0,0.1,0.2,0.1,0.3,0.1c0.1,0,0.2-0.1,0.1-0.1C149,6.4,148.8,6.3,148.7,6.3z"/>
	<path d="M148.8,17.7c-0.1,0-0.1,0-0.1,0c0,0.1,0.1,0.1,0.1,0.1c0.1,0,0.1,0,0.1,0C148.9,17.8,148.9,17.7,148.8,17.7z"/>
	<path d="M148.7,16c0.3-0.1,0.3-0.3,0-0.3c-0.2,0-0.4,0.2-0.3,0.3C148.5,16.1,148.6,16.1,148.7,16z"/>
	<path d="M148.5,17.1c-0.1,0-0.1,0-0.1,0c0,0.1,0.1,0.1,0.1,0.1c0.1,0,0.1,0,0.1,0C148.6,17.2,148.6,17.1,148.5,17.1z"/>
	<path d="M148,16.6C147.9,16.7,148,16.7,148,16.6c0.2,0.1,0.3,0,0.3,0C148.3,16.6,148.1,16.6,148,16.6z"/>
	<path d="M148.1,4.3c0,0.1,0.1,0.2,0.1,0.2c0.2,0,0.2-0.1,0-0.3C148.1,4.1,148.1,4.1,148.1,4.3z"/>
	<path d="M148.1,17.7c-0.1,0-0.1,0-0.1,0.1c0,0.1,0.1,0.2,0.1,0.2c0.1,0,0.1,0,0.1-0.1C148.2,17.9,148.2,17.7,148.1,17.7z"/>
	<path d="M148,6.2c-0.3-0.2-0.4-0.1-0.3,0.1c0.1,0.3,0.2,0.3,0.4,0.2C148.3,6.5,148.2,6.4,148,6.2z"/>
	<path d="M148,17.2c0-0.1-0.2-0.1-0.4-0.1c-0.1,0-0.3,0-0.3,0.1c0,0.1,0.2,0.1,0.4,0.1S148.1,17.3,148,17.2z"/>
	<path d="M147.9,16.2c0.1,0,0.1,0,0.1,0c0,0-0.1-0.1-0.1-0.1c-0.1,0-0.1,0-0.1,0C147.8,16.1,147.9,16.2,147.9,16.2z"/>
	<path d="M148,2.1c0,0-0.2,0-0.3,0c-0.1,0-0.1,0.1,0.1,0.1C148,2.2,148.1,2.2,148,2.1z"/>
	<path d="M147.8,26c0-0.1-0.1-0.1-0.1-0.1c-0.1,0-0.1,0-0.1,0.1"/>
	<path d="M147.7,5.7c0-0.1-0.2-0.1-0.3-0.1c-0.1,0-0.2,0-0.1,0.1c0,0.1,0.2,0.1,0.3,0.1C147.7,5.8,147.8,5.7,147.7,5.7z"/>
	<path d="M147.1,4.3c0,0.1,0.3,0.2,0.6,0.2c0.1,0,0.1-0.1,0.1-0.2c0-0.1-0.1-0.2-0.4-0.2C147.2,4.2,147.1,4.2,147.1,4.3z"/>
	<path d="M147.6,17.9c-0.3,0-0.5,0.2-0.3,0.3c0.1,0,0.2,0,0.3,0C147.7,18.1,147.7,17.9,147.6,17.9z"/>
	<path d="M147.4,16.7c0,0,0,0.1,0.1,0.2c0.1,0.1,0.2,0.1,0.1-0.1C147.5,16.7,147.4,16.6,147.4,16.7z"/>
	<path d="M147.4,16.3c0.2-0.1,0-0.3-0.2-0.2c-0.1,0-0.2,0.1-0.1,0.2C147.1,16.4,147.3,16.4,147.4,16.3z"/>
	<path d="M147.2,14.9c0.1,0,0.1,0,0.1-0.1c0-0.1-0.1-0.2-0.1-0.2c-0.1,0-0.1,0-0.1,0.1S147.2,14.8,147.2,14.9z"/>
	<path d="M146.5,4.8c-0.3,0-0.4,0.2-0.1,0.3c0.1,0,0.2,0.2,0.2,0.4c0,0.2,0.1,0.3,0.1,0.4c0.1,0,0.1-0.1,0.1-0.2
		c0-0.1,0.1-0.3,0.1-0.3C147.5,5.1,147.1,4.8,146.5,4.8z"/>
	<path d="M147.1,2.1c-0.1,0-0.1,0-0.1,0.1c0,0.1,0.1,0.2,0.1,0.2c0.1,0,0.1,0,0.1-0.1C147.2,2.2,147.2,2.2,147.1,2.1z"/>
	<path d="M147.1,1.7c0.1,0,0.1-0.1,0.1-0.2c0-0.2-0.4-0.3-0.5-0.2C146.6,1.4,146.9,1.7,147.1,1.7z"/>
	<path d="M147,18.7c-0.1-0.1-0.2-0.1-0.3,0c-0.1,0.1-0.1,0.1,0.2,0.1S147.1,18.8,147,18.7z"/>
	<path d="M146.9,15.8c0.1,0,0.2,0,0.1-0.1c0-0.1-0.1-0.2-0.2-0.2C146.7,15.5,146.7,15.8,146.9,15.8z"/>
	<path d="M146.8,26.5c-0.1,0-0.1,0-0.1,0.1c0,0.1,0.1,0.1,0.1,0.1c0.1,0,0.1-0.1,0.1-0.1C146.9,26.5,146.9,26.5,146.8,26.5z"/>
	<path d="M146.8,3.8c0.1,0,0.1-0.1,0.1-0.2c-0.1-0.1-0.6-0.1-0.6,0C146.2,3.8,146.7,3.9,146.8,3.8z"/>
	<path d="M146.7,18.1c0.2-0.3,0.2-0.3,0-0.4c-0.1,0-0.1-0.1-0.1-0.2c0.1-0.1-0.5-0.7-0.7-0.7c0,0,0,0.1,0,0.3c0,0.1,0,0.3-0.1,0.3
		c-0.1,0,0.1,0.2,0.3,0.4c0.2,0.2,0.5,0.4,0.5,0.5C146.5,18.3,146.6,18.3,146.7,18.1z"/>
	<path d="M146.2,14.8c0,0.1,0.2,0.1,0.3,0.1c0.1,0,0.2-0.1,0.2-0.1c0-0.1-0.1-0.1-0.3-0.1C146.2,14.7,146.1,14.7,146.2,14.8z"/>
	<path d="M146.5,4.3c-0.1,0-0.1,0-0.1,0.1c0,0.1,0.1,0.2,0.1,0.2c0.1,0,0.1,0,0.1-0.1C146.7,4.4,146.6,4.3,146.5,4.3z"/>
	<path d="M146.6,2.2c0-0.1-0.2-0.1-0.4-0.1c-0.2,0-0.2,0-0.2,0.1c0,0.1,0.2,0.1,0.4,0.1C146.6,2.3,146.6,2.2,146.6,2.2z"/>
	<path d="M144.7,26.8c-0.6,0-1,0-0.9,0c0.2,0,0.3-0.1,0.3-0.2c0-0.2-0.9-0.3-1.3-0.1c-0.4,0.2-0.6,0.4-0.1,0.3
		c0.5-0.1,0.5-0.1,0.5,0.2c0,0.1,0,0.3,0.1,0.4c0.1,0,0.1,0,0.1,0c0-0.1,0.5-0.1,1.1-0.2c0.7,0,1.3-0.1,1.5-0.2
		c0.2-0.1,0.4-0.3,0.4-0.4v-0.2l-0.3,0.3C145.9,26.8,145.7,26.8,144.7,26.8z"/>
	<path d="M146,15.7c0,0,0.1,0.1,0.2,0.1c0.1,0,0.2,0,0.2,0c0-0.1-0.1-0.1-0.2-0.1C146.1,15.6,146,15.7,146,15.7z"/>
	<path d="M146.3,14.4c0.1,0,0.1-0.1,0.1-0.1c0-0.1-0.2-0.1-0.2-0.1c-0.1,0-0.1,0-0.1,0.1C146.1,14.3,146.2,14.4,146.3,14.4z"/>
	<path d="M146.4,3c0-0.1-0.1-0.1-0.1-0.1c-0.1,0-0.1,0.1-0.1,0.2c0,0.1,0.1,0.2,0.1,0.1C146.3,3.2,146.4,3.1,146.4,3z"/>
	<path d="M146.2,1.5c0-0.1-0.1-0.1-0.1-0.1c-0.1,0-0.1,0-0.1,0.1c0,0.1,0.1,0.1,0.1,0.1C146.2,1.6,146.2,1.5,146.2,1.5z"/>
	<path d="M145.8,18.1c-0.1,0-0.1,0-0.1,0.1c0,0.1,0.2,0.1,0.2,0.1c0.1,0,0.1-0.1,0.1-0.1C146,18.1,145.9,18.1,145.8,18.1z"/>
	<path d="M146,15.3c0,0,0-0.1,0-0.2c-0.1-0.1-0.2-0.2-0.2-0.2c-0.1,0-0.1,0.1,0,0.2C145.9,15.3,146,15.3,146,15.3z"/>
	<path d="M145.5,7.8c0,0.1,0.1,0.1,0.2,0.1c0.1,0,0.1-0.1,0.1-0.1c0-0.1-0.1-0.1-0.2-0.1C145.5,7.7,145.4,7.7,145.5,7.8z"/>
	<path d="M145.4,25.7c0.2,0,0.3-0.1,0.3-0.1c0-0.1-0.1-0.1-0.2-0.1c-0.1,0-0.3,0-0.3,0.1C145.1,25.7,145.2,25.7,145.4,25.7z"/>
	<path d="M145.4,15.5c-0.1,0-0.1,0.1-0.1,0.1c0,0.1,0.1,0.2,0.1,0.2c0.1,0,0.1,0,0.1-0.1C145.5,15.6,145.5,15.5,145.4,15.5z"/>
	<path d="M145,15.2c0.1,0,0.3,0,0.4,0.1c0.2,0.1,0.2,0.1,0.1-0.1c-0.2-0.2-0.6-0.2-0.6-0.1C144.8,15.2,144.9,15.2,145,15.2z"/>
	<path d="M145.3,6.3c-0.1,0-0.2,0-0.2,0.1c0,0.1,0.2,0.2,0.3,0.1C145.6,6.5,145.5,6.3,145.3,6.3z"/>
	<path d="M145,26.6c0.2,0,0.3-0.1,0.3-0.1c0-0.1-0.1-0.1-0.3-0.1c-0.2,0-0.3,0-0.3,0.1C144.7,26.5,144.8,26.6,145,26.6z"/>
	<path d="M145,16.4c-0.2,0-0.2,0.2,0.1,0.3c0.2,0.1,0.2,0.1,0.1-0.1C145.1,16.5,145,16.4,145,16.4z"/>
	<path d="M145.1,4.9c-0.1,0-0.2,0-0.2,0.1c0,0.1,0,0.1,0.1,0.1C145.3,5.1,145.3,5,145.1,4.9z"/>
	<path d="M144.9,4.1c-0.1,0-0.2,0.1-0.2,0.2c0,0.2,0.2,0.3,0.3,0.1C145.2,4.4,145.1,4.2,144.9,4.1z"/>
	<path d="M144.8,31.3c-0.3,0-0.4,0.2-0.3,0.3c0.1,0.1,0.2,0.1,0.3,0C145,31.5,145,31.3,144.8,31.3z"/>
	<path d="M144.7,29.4c0.3-0.6,0.3-0.6,0-0.6c-0.1,0-0.2,0.2-0.3,0.5C144.4,29.9,144.5,30,144.7,29.4z"/>
	<path d="M144.8,27.8c0.1,0,0.1-0.1,0.1-0.2c0-0.1-0.2-0.1-0.3,0C144.5,27.7,144.7,27.8,144.8,27.8z"/>
	<path d="M144.6,15.9c-0.1,0-0.2,0-0.1,0.1c0,0.1,0.1,0.1,0.2,0.1c0.1,0,0.1-0.1,0.1-0.1C144.8,15.9,144.7,15.9,144.6,15.9z"/>
	<path d="M144.7,6.1c-0.2-0.1-0.3,0.2-0.2,0.4c0,0.1,0.1,0.1,0.2,0C144.9,6.4,144.9,6.1,144.7,6.1z"/>
	<path d="M144.7,5.8c0.3,0.1,0.2-0.2-0.1-0.2c-0.1,0-0.2,0-0.2,0.1C144.5,5.7,144.6,5.8,144.7,5.8z"/>
	<path d="M144.5,1.8c-0.1,0-0.2,0-0.2,0.1c0,0.1,0.1,0.1,0.2,0.1c0.1,0,0.2-0.1,0.2-0.1C144.7,1.8,144.6,1.8,144.5,1.8z"/>
	<path d="M144.5,15.3c0-0.1-0.1-0.3-0.1-0.4c0-0.1,0-0.1-0.3,0c-0.1,0.1-0.4,0.2-0.6,0.3c-0.6,0.2-0.5,0.3,0.3,0.3
		C144.5,15.5,144.5,15.5,144.5,15.3z"/>
	<path d="M143.9,7.9c-0.3,0-0.5,0-0.5,0.1c0,0.1,0.6,0.5,0.8,0.5c0.2,0,0.2-0.1,0.2-0.3C144.4,7.9,144.3,7.9,143.9,7.9z"/>
	<path d="M144.1,30.1c-0.1,0-0.1,0-0.1,0c0,0.1,0.1,0.1,0.1,0.1c0.1,0,0.1,0,0.1,0C144.3,30.2,144.2,30.1,144.1,30.1z"/>
	<path d="M144.1,7.5c0.2-0.1,0.2-1.3,0-1.3c-0.1,0-0.2,0.2-0.2,0.5c0,0.6,0,0.6-0.3,0.4c-0.2-0.1-0.2-0.2-0.3,0c0,0.1,0,0.2,0,0.3
		C143.5,7.5,144,7.6,144.1,7.5z"/>
	<path d="M143.8,29.5c-0.2,0-0.3,0-0.2,0.1c0.1,0.1,0.2,0.1,0.3,0.1C144.2,29.6,144.1,29.5,143.8,29.5z"/>
	<path d="M143.9,16c-0.1,0-0.2,0-0.2,0.1c0,0.1,0.1,0.1,0.2,0.2c0.1,0,0.2,0,0.2-0.1C144.1,16,144,16,143.9,16z"/>
	<path d="M143.8,14.5c0,0.1,0.1,0.1,0.2,0.1c0.1,0,0.1-0.1,0.1-0.1c0-0.1-0.1-0.1-0.2-0.1C143.8,14.4,143.7,14.4,143.8,14.5z"/>
	<path d="M144,29c0-0.1-0.1-0.1-0.1-0.1c-0.1,0-0.1,0.1-0.1,0.2c0,0.1,0.1,0.1,0.1,0.1C143.9,29.2,144,29.1,144,29z"/>
	<path d="M143.7,14.1c0.2,0.1,0.2-0.2,0-0.4c-0.1-0.1-0.1-0.1-0.1,0.1C143.6,13.9,143.6,14.1,143.7,14.1z"/>
	<path d="M143.7,5.5c0.1,0,0.1,0,0.1-0.1c0-0.1-0.1-0.2-0.1-0.2c-0.1,0-0.1,0.1-0.1,0.1C143.6,5.4,143.6,5.5,143.7,5.5z"/>
	<path d="M143.6,6.6c0-0.2-0.5-0.2-0.6-0.1c-0.1,0.1,0.2,0.2,0.5,0.2C143.5,6.7,143.6,6.7,143.6,6.6z"/>
	<path d="M143.3,29c-0.1,0-0.1,0.1-0.1,0.1c0,0.1,0.1,0.1,0.1,0c0.1,0,0.1-0.1,0.1-0.1C143.4,29,143.4,29,143.3,29z"/>
	<path d="M142.7,26c0.1,0,0.2,0,0.4,0.1c0.3,0.1,0.3,0,0.3-0.2c0-0.1-0.1-0.3-0.1-0.3c-0.1,0-0.1,0-0.1,0.1c0,0.1-0.1,0.1-0.3,0.1
		C142.6,25.8,142.4,26,142.7,26z"/>
	<path d="M143,5.5c0.3,0,0.3-0.1,0.1-0.2c-0.1,0-0.2,0-0.2,0.1C142.9,5.4,142.9,5.5,143,5.5z"/>
	<path d="M143,29.8c-0.2,0.2-0.4,0.7-0.2,0.7c0.1,0,0.2-0.1,0.2-0.1C143.2,30.1,143.1,29.7,143,29.8z"/>
	<path d="M142.7,8.1c0,0.1,0.1,0.1,0.2,0.1c0.2,0,0.3,0,0.1-0.3C142.9,7.8,142.7,7.9,142.7,8.1z"/>
	<path d="M142.6,14.6c-0.1,0-0.2,0-0.2,0.1c0,0.1,0.1,0.1,0.3,0.1c0.2,0,0.2-0.1,0.2-0.1C142.9,14.6,142.7,14.6,142.6,14.6z"/>
	<path d="M142.6,27.2c-0.1,0-0.1,0-0.1,0c0,0,0.1,0.1,0.1,0.1c0.1,0,0.1,0,0.1,0C142.7,27.3,142.7,27.2,142.6,27.2z"/>
	<path d="M142.6,25.6c0.1,0,0.1-0.1,0.1-0.2c0-0.1-0.1-0.2-0.1-0.2c-0.1,0-0.1,0.1-0.1,0.2C142.4,25.5,142.5,25.6,142.6,25.6z"/>
	<path d="M142.4,2.3c-0.3,0.1-0.5,0.3-0.3,0.5c0.1,0.1,0.2,0.1,0.4-0.1C142.8,2.4,142.8,2.2,142.4,2.3z"/>
	<path d="M142.4,29.8c-0.1,0-0.2,0.2-0.2,0.3c0,0.2,0,0.2,0.2,0.1c0.1-0.1,0.2-0.2,0.2-0.3C142.6,29.8,142.5,29.8,142.4,29.8z"/>
	<path d="M142.2,26.7c-0.2-0.1-0.4,0.1-0.3,0.1c0,0,0.2,0,0.3,0C142.3,26.8,142.3,26.7,142.2,26.7z"/>
	<path d="M141.6,25.4c-0.1,0-0.1,0-0.1,0.1c0,0.1,0.1,0.1,0.2,0.1c0.1,0,0.2-0.1,0.1-0.1C141.7,25.4,141.6,25.4,141.6,25.4z"/>
	<path d="M141.6,24.8c0,0.2,0.1,0.4,0.1,0.4c0.2,0.1,0.2-0.4,0-0.6C141.6,24.5,141.6,24.6,141.6,24.8z"/>
	<path d="M141.5,29.8c-0.1,0.1-0.3,0.1-0.4,0.1c-0.3-0.1-0.7,0.1-0.6,0.3c0.1,0.1,0.9,0.1,1.1,0c0.1,0,0.1-0.1,0.1-0.3
		C141.7,29.8,141.7,29.7,141.5,29.8z"/>
	<path d="M141.2,14.2c-0.1,0.1,0.2,0.3,0.4,0.2c0.1,0,0.1-0.1,0.1-0.2C141.7,14,141.3,14,141.2,14.2z"/>
	<path d="M141.1,27.6c0.1,0.1,0.2,0.1,0.3,0.1c0.2-0.1,0.2-0.2-0.2-0.2C141,27.5,141,27.5,141.1,27.6z"/>
	<path d="M141.1,25.9c0.2-0.1,0.2-0.1,0-0.4c-0.2-0.3-0.5-0.1-0.3,0.1C140.9,25.9,141,26,141.1,25.9z"/>
	<path d="M141,15C140.9,15.1,140.9,15.1,141,15c0.2,0.1,0.3,0,0.3,0C141.2,15,141.1,15,141,15z"/>
	<path d="M141.2,26.2c0-0.1-0.1-0.1-0.1-0.1c-0.1,0-0.1,0-0.1,0.1c0,0.1,0.1,0.1,0.1,0.1C141.1,26.4,141.2,26.3,141.2,26.2z"/>
	<path d="M140.8,29.6c0,0.1,0,0.2,0.1,0.2c0.1,0,0.1-0.1,0.1-0.2c0-0.1,0-0.2-0.1-0.2S140.9,29.5,140.8,29.6z"/>
	<path d="M140.8,15.8c-0.1,0-0.2,0.1-0.2,0.2c0,0.2,0.2,0.2,0.3,0.1C141.1,15.9,141,15.8,140.8,15.8z"/>
	<path d="M140.9,14.6c0.1,0,0.1,0,0.1-0.1c0-0.1-0.1-0.1-0.1-0.2c-0.1,0-0.1,0-0.1,0.1C140.7,14.5,140.8,14.6,140.9,14.6z"/>
	<path d="M140.5,29.5c0-0.1-0.1-0.1-0.2,0c-0.1,0-0.1,0.1,0,0.2c0,0.1,0.1,0.1,0.2,0C140.5,29.6,140.6,29.6,140.5,29.5z"/>
	<path d="M140.3,15.1c-0.1,0-0.1,0-0.1,0.1c0,0.1,0.1,0.1,0.1,0.2c0.1,0,0.1,0,0.1-0.1C140.4,15.2,140.4,15.1,140.3,15.1z"/>
	<path d="M140,30c-0.1,0-0.1,0.1-0.1,0.2c0,0.1,0.1,0.1,0.1,0.1c0.1,0,0.1-0.1,0.1-0.2C140.2,30,140.1,30,140,30z"/>
	<path d="M139.7,14.5c-0.1,0-0.1,0-0.1,0.1c0,0.1,0.1,0.1,0.2,0.1c0.1,0,0.2-0.1,0.1-0.1C139.9,14.5,139.8,14.5,139.7,14.5z"/>
	<path d="M139.7,27.6c-0.1,0-0.1,0-0.1,0c0,0.1,0.1,0.1,0.1,0.1c0.1,0,0.1,0,0.1,0C139.9,27.7,139.8,27.6,139.7,27.6z"/>
	<path d="M139.7,3.7c-0.2,0-0.1,0.2,0.1,0.2c0.1,0,0.1,0,0.1-0.1C139.8,3.7,139.8,3.7,139.7,3.7z"/>
	<path d="M139.4,30.1c-0.1,0-0.2,0.1-0.1,0.2c0,0,0.2,0.1,0.3,0c0.1,0,0.2-0.1,0.1-0.2C139.6,30.1,139.5,30.1,139.4,30.1z"/>
	<path d="M138.6,29.6c-0.4,0-0.4,0-0.2,0.1c0.1,0.1,0.3,0.1,0.5,0C139.2,29.7,139.1,29.6,138.6,29.6z"/>
	<path d="M138.9,27.4c-0.1,0-0.1,0-0.1,0.1c0,0.1,0.1,0.1,0.1,0.2c0.1,0,0.1,0,0.1-0.1C139,27.5,139,27.4,138.9,27.4z"/>
	<path d="M138.6,3.7c-0.2,0-0.4-0.1-0.4-0.3c0-0.1-0.1-0.2-0.3-0.2c-0.2,0-0.2,0.2,0,0.9c0.1,0.2,0.1,0.2,0.2,0
		c0.1-0.2,0.1-0.2,0.5-0.1c0.4,0.2,0.4,0.2,0.3,0C139,3.8,138.8,3.7,138.6,3.7z"/>
	<path d="M138.8,3.1c0.1,0,0.1-0.1,0.1-0.2c0-0.1-0.1-0.1-0.1-0.2c-0.1,0-0.1,0-0.1,0.2C138.6,3.1,138.7,3.1,138.8,3.1z"/>
	<path d="M138.4,30.2c-0.2,0.1,0,0.3,0.2,0.2c0.1,0,0.1-0.1,0.1-0.2C138.6,30.1,138.5,30.1,138.4,30.2z"/>
	<path d="M138,27.7c0.2,0,0.3,0,0.4-0.1c0.1,0,0-0.1-0.1-0.1c-0.1,0-0.3,0-0.4,0.1C137.7,27.7,137.8,27.7,138,27.7z"/>
	<ellipse cx="138" cy="29.2" rx="0.1" ry="0.1"/>
	<path d="M138.1,27.3c0,0,0.1-0.1,0.1-0.2c0-0.1-0.1-0.2-0.1-0.2c-0.1,0-0.1,0.1-0.1,0.2C138,27.2,138.1,27.3,138.1,27.3z"/>
	<path d="M137.9,29.7c-0.1,0-0.1,0-0.1,0c0,0.1,0.1,0.1,0.1,0.1c0.1,0,0.1,0,0.1,0C138,29.8,138,29.7,137.9,29.7z"/>
	<path d="M137.7,30.4c-0.1,0-0.2,0.1-0.1,0.1c0.1,0.1,0.2,0.1,0.2,0.1C138,30.4,137.9,30.4,137.7,30.4z"/>
	<path d="M137.7,27.2c0.1,0-0.1-0.1-0.4-0.1c-0.3,0-0.6-0.1-0.7-0.1c-0.1-0.1-0.2-0.1-0.2,0.1c0,0.1,0,0.2,0,0.2
		C136.6,27.4,137.5,27.3,137.7,27.2z"/>
	<path d="M137.6,28.4c0,0-0.1-0.1-0.1-0.1c-0.1,0-0.1,0-0.1,0.1c0,0.1,0.1,0.1,0.1,0.1C137.6,28.5,137.6,28.4,137.6,28.4z"/>
	<path d="M137.4,27.5c0,0-0.1,0.1,0,0.2c0,0.1,0.1,0.1,0.1-0.1C137.5,27.6,137.4,27.5,137.4,27.5z"/>
	<path d="M137.3,29.7c0,0-0.1,0-0.2,0.1c0,0.1,0,0.1,0.1,0.1c0.1,0,0.2-0.1,0.2-0.1C137.3,29.8,137.3,29.7,137.3,29.7z"/>
	<path d="M137.2,26.7c0.1,0,0.1,0,0.1-0.1c0-0.2-0.1-0.2-0.2-0.1C137.1,26.6,137.1,26.7,137.2,26.7z"/>
	<path d="M137.1,25.5c0.1,0,0.1-0.1,0.1-0.2c0-0.1-0.1-0.2-0.1-0.2c-0.1,0-0.1,0.1-0.1,0.2C136.9,25.4,137,25.5,137.1,25.5z"/>
	<path d="M136.9,27.7c-0.1,0-0.1,0-0.1,0.1c0,0.1,0.1,0.1,0.1,0.1c0.1,0,0.1-0.1,0.1-0.1C137.1,27.8,137,27.7,136.9,27.7z"/>
	<path d="M136.6,26.7c0.1,0,0.1-0.2,0.1-0.4c-0.1-0.6-0.2-0.7-0.3-0.2C136.2,26.6,136.4,26.9,136.6,26.7z"/>
	<path d="M136.5,25.2c0-0.1-0.1-0.1-0.2-0.1c-0.1,0-0.2,0.1-0.2,0.2c0,0.1,0.1,0.1,0.2,0.1S136.5,25.3,136.5,25.2z"/>
	<path d="M136.1,28.5c-0.1,0-0.1,0.1-0.1,0.1c0,0.1,0.1,0.1,0.1,0c0.1,0,0.1-0.1,0.1-0.1C136.2,28.5,136.2,28.5,136.1,28.5z"/>
	<path d="M136.1,24.7c0.1,0,0.1,0,0.1-0.1c0-0.1-0.1-0.1-0.1-0.2c-0.1,0-0.1,0-0.1,0.1C135.9,24.6,136,24.7,136.1,24.7z"/>
	<path d="M135.6,25.1c-0.1,0-0.2-0.1-0.2,0c-0.1,0.1,0.1,0.4,0.2,0.4C135.8,25.5,135.8,25.2,135.6,25.1z"/>
	<path d="M135.1,23.8c0,0-0.1,0.1,0,0.2c0,0.1,0.1,0.1,0.1-0.1C135.2,23.9,135.2,23.8,135.1,23.8z"/>
	<path d="M135,23.5c0.1,0,0.2-0.1,0.1-0.1c0-0.1-0.1-0.1-0.2-0.1c-0.1,0-0.1,0-0.1,0.1C134.8,23.4,134.9,23.5,135,23.5z"/>
	<path d="M135,26.6c-0.1,0-0.2,0-0.2,0.1c0,0.1,0,0.1,0.1,0.1c0.1,0,0.2-0.1,0.2-0.1C135.1,26.6,135,26.6,135,26.6z"/>
	<path d="M135,25.3c0,0-0.2,0-0.3,0c-0.1,0-0.1,0.1,0.1,0.1C135,25.4,135.1,25.4,135,25.3z"/>
	<path d="M134.4,27.3c-0.1,0-0.2,0.1-0.1,0.1c0.1,0.1,0.2,0.1,0.2,0.1C134.7,27.4,134.7,27.3,134.4,27.3z"/>
	<path d="M134.2,22.7c-0.1,0-0.4-0.1-0.5-0.3c-0.4-0.4-1.1-0.6-1.8-0.5c-1.1,0.2-1.5,1.1-0.9,1.8c0.2,0.2,0.3,0.4,0.3,0.6
		c0,0.1,0.1,0.2,0.3,0.1c0.2-0.1,0.4-0.1,0.6-0.1c0.8,0,1.6-0.5,1.6-1c0-0.1,0.1-0.3,0.3-0.3C134.6,22.9,134.6,22.7,134.2,22.7z"/>
	<path d="M133.7,27.9c-0.1,0-0.2,0-0.2,0.1c0,0.1,0.1,0.1,0.3,0.1c0.2,0,0.2-0.1,0.2-0.1C134,28,133.8,27.9,133.7,27.9z"/>
	<path d="M133.7,24.8c0.2-0.1,0.1-0.2-0.2-0.2c-0.2,0-0.3,0-0.3,0.1C133.2,24.8,133.6,24.9,133.7,24.8z"/>
	<path d="M133.4,26.7c-0.1,0-0.1,0-0.1,0c0,0,0.1,0.1,0.1,0.1c0.1,0,0.1,0,0.1,0C133.5,26.7,133.5,26.7,133.4,26.7z"/>
	<path d="M133.3,25.4c0-0.1-0.2-0.1-0.2-0.1c-0.1,0-0.1,0-0.1,0.1c0,0.1,0.2,0.1,0.2,0.1C133.3,25.5,133.4,25.5,133.3,25.4z"/>
	<path d="M133,21.5c0.1,0,0.1,0,0.1,0c0,0-0.1-0.1-0.1-0.1c-0.1,0-0.1,0-0.1,0C132.8,21.4,132.9,21.5,133,21.5z"/>
	<path d="M132.4,21.6c0.2-0.1,0.2-0.1,0-0.1c-0.3-0.1-0.4-0.1-0.3,0.1C132.1,21.6,132.2,21.6,132.4,21.6z"/>
	<path d="M132,26.6c-0.2,0.1-0.2,0.2-0.1,0.2c0.1,0.1,0.2,0,0.3,0C132.5,26.6,132.3,26.4,132,26.6z"/>
	<path d="M131.1,21.2c0.1,0,0.1,0.2,0.1,0.3c-0.1,0.2,0.1,0.3,0.3,0.1c0.2-0.1,0.1-0.7-0.2-0.7C131.1,20.8,130.9,21.1,131.1,21.2z"
		/>
	<path d="M130.8,21.4c-0.2,0-0.5,0.4-0.4,0.5c0.1,0,0.2,0,0.4-0.1C131,21.5,131.1,21.4,130.8,21.4z"/>
	<path d="M130.4,22.4c-0.1,0-0.2,0-0.2,0.1c0,0.1,0,0.1,0.1,0.1C130.6,22.5,130.6,22.5,130.4,22.4z"/>
	<path d="M128.9,20.3c-0.1,0-0.1,0-0.1,0.1c0,0.1,0.1,0.1,0.1,0.1c0.1,0,0.1-0.1,0.1-0.1C129,20.4,128.9,20.3,128.9,20.3z"/>
	<path d="M128.6,24c-0.1,0-0.2,0-0.2,0.1c0,0.1,0,0.1,0.1,0.1c0.1,0,0.2-0.1,0.2-0.1C128.7,24.1,128.7,24,128.6,24z"/>
	<path d="M127,24c-0.2,0-0.3,0-0.3,0.1c0,0.1,0.2,0.2,0.4,0.2C127.4,24.2,127.4,24,127,24z"/>
	<path d="M127.1,19.1c-0.1,0-0.2,0-0.1,0.1c0,0.1,0.1,0.1,0.2,0.1c0.1,0,0.1-0.1,0.1-0.1C127.3,19.2,127.2,19.1,127.1,19.1z"/>
	<path d="M126.5,19.5c0.1,0,0.1,0,0.1-0.1c0-0.1-0.1-0.2-0.1-0.2c-0.1,0-0.1,0-0.1,0.1C126.3,19.4,126.4,19.5,126.5,19.5z"/>
	<path d="M126.3,23.9c-0.1,0-0.1,0-0.1,0.1c0,0.1,0.1,0.1,0.1,0.2c0.1,0,0.1,0,0.1-0.1C126.5,24,126.4,23.9,126.3,23.9z"/>
	<path d="M123.7,20.1c-0.1,0-0.1,0-0.1,0.1c0,0.1,0.2,0.2,0.2,0.2C124,20.4,123.9,20.2,123.7,20.1z"/>
	<path d="M123.1,21.5c-0.1,0-0.1,0.1-0.1,0.2c0,0.1,0.1,0.1,0.1,0.1c0.1,0,0.1-0.1,0.1-0.2C123.2,21.5,123.2,21.5,123.1,21.5z"/>
	<path d="M122.2,20.8c-0.1,0-0.1,0-0.1,0.1c0,0.1,0.1,0.1,0.1,0.1c0.1,0,0.1-0.1,0.1-0.1C122.4,20.9,122.3,20.8,122.2,20.8z"/>
	<path d="M120.3,19.5c-0.9,0-1.4,0.7-0.7,1.2c0.4,0.3,0.6,0.3,1-0.1c0.4-0.4,0.4-0.5,0.2-0.9C120.7,19.5,120.6,19.5,120.3,19.5z"/>
	<path d="M120.1,22.9c-0.2,0-0.3,0-0.2,0.1c0.1,0.1,0.2,0.1,0.3,0.1C120.5,22.9,120.4,22.9,120.1,22.9z"/>
	<path d="M120.1,19.1c0.2-0.1,0.2-0.1,0-0.1c-0.3-0.1-0.5,0-0.3,0.1C119.8,19.1,119.9,19.1,120.1,19.1z"/>
	<path d="M119.1,19c0.1,0.1,0.2,0.1,0.2-0.1c0-0.2,0-0.2-0.2-0.1C119,18.8,119,18.9,119.1,19z"/>
	<path d="M118.8,20.4c0.1,0,0.2-0.1,0.2-0.1c0-0.1,0-0.1-0.1-0.1c0,0-0.1,0-0.2,0.1C118.7,20.4,118.7,20.4,118.8,20.4z"/>
	<path d="M118.3,18.9c-0.1-0.1-0.2-0.1-0.3,0c-0.2,0.2-0.1,0.3,0.3,0.2C118.4,19.1,118.4,19,118.3,18.9z"/>
	<path d="M117.6,21.1c-0.1,0-0.1,0-0.1,0.1c0,0.1,0.1,0.1,0.1,0.1c0.1,0,0.1-0.1,0.1-0.1C117.7,21.1,117.6,21.1,117.6,21.1z"/>
	<path d="M117.6,20.6c-0.1,0-0.1,0-0.1,0c0,0.1,0.1,0.1,0.1,0.1c0.1,0,0.1,0,0.1,0C117.7,20.7,117.6,20.6,117.6,20.6z"/>
	<path d="M116.6,17.2c0.2,0.1,0.4,0.2,0.5,0.2c0.2,0,0.2,0,0-0.2c-0.1-0.1-0.3-0.2-0.5-0.2C116.4,17,116.4,17,116.6,17.2z"/>
	<path d="M117.1,17c0.1,0,0.1,0,0.1,0c0-0.1-0.1-0.1-0.1-0.1c-0.1,0-0.1,0-0.1,0C117,16.9,117.1,16.9,117.1,17z"/>
	<path d="M117,19.9c0-0.3-0.3-0.3-0.4,0c0,0.2,0,0.2,0.2,0.2C116.9,20.2,117,20.1,117,19.9z"/>
	<path d="M116.7,19.1c0.2,0,0.3-0.1,0.2-0.2c-0.1-0.1-0.2-0.2-0.3-0.2c-0.1,0-0.2,0.1-0.2,0.2C116.4,19.1,116.6,19.1,116.7,19.1z"/>
	<path d="M116.6,22.2c0,0.1,0,0.1,0.1,0.1c0.1,0,0.2-0.1,0.2-0.1c0-0.1,0-0.1-0.1-0.1C116.8,22.1,116.7,22.2,116.6,22.2z"/>
	<path d="M116.6,18.3c0,0.1,0.1,0.1,0.1,0.1c0.1,0,0.1,0,0.1,0c0,0-0.1-0.1-0.1-0.1C116.6,18.2,116.6,18.2,116.6,18.3z"/>
	<path d="M115.9,21.2c0,0.1,0.1,0.1,0.2,0.1c0.2,0,0.3-0.1,0.3-0.1c0-0.1-0.2-0.1-0.3-0.1C116,21.1,115.9,21.2,115.9,21.2z"/>
	<path d="M115.4,22.6c0.2,0.2,0.4,0.2,0.6,0c0.3-0.2,0.3-0.3,0-0.5c-0.2-0.1-0.3-0.1-0.5,0.1C115.3,22.4,115.3,22.4,115.4,22.6z"/>
	<path d="M116.1,19c0-0.1-0.1-0.1-0.1-0.1c-0.1,0-0.1,0-0.1,0.1c0,0.1,0.1,0.1,0.1,0.1C116.1,19.1,116.1,19.1,116.1,19z"/>
	<path d="M115.7,18.5c0,0.1,0.2,0.1,0.3,0.1c0.1,0,0.2-0.1,0.2-0.1c0-0.1-0.1-0.1-0.3-0.1C115.7,18.4,115.6,18.4,115.7,18.5z"/>
	<path d="M115.7,20.8c0,0.1,0.1,0.1,0.1,0.1c0.1,0,0.1-0.1,0.1-0.1c0-0.1-0.1-0.1-0.1-0.1C115.8,20.7,115.7,20.8,115.7,20.8z"/>
	<path d="M115.8,18c0.1-0.1,0.2-0.2,0.2-0.3c0-0.1-0.1-0.1-0.2-0.1c-0.1,0-0.2,0.1-0.2,0.3C115.6,18.1,115.6,18.1,115.8,18z"/>
	<path d="M114.6,18.9c0,0.1,0.8,0.6,0.9,0.6c0.2,0,0.1-0.2-0.1-0.3c-0.2-0.1-0.2-0.1,0-0.2c0.2-0.1,0.2-0.2,0.2-0.2
		C115.2,18.9,114.6,18.9,114.6,18.9z"/>
	<path d="M114.9,17.8c0.4,0,0.4-0.1,0.1-0.1c-0.1,0-0.2,0-0.3,0C114.6,17.7,114.7,17.8,114.9,17.8z"/>
	<path d="M114.8,20.2c0,0.1,0,0.1,0.1,0.2c0.1,0,0.1,0,0.1-0.1C115,20.1,114.9,20,114.8,20.2z"/>
	<path d="M114.6,18.3c0.2-0.2,0.2-0.2,0-0.2c-0.1,0-0.2-0.1-0.2-0.2s-0.1-0.1-0.1-0.1c-0.2,0-0.2,0.6,0,0.7
		C114.3,18.5,114.5,18.4,114.6,18.3z"/>
	<path d="M113.6,16.5c0.1,0.1,0.2,0.1,0.6,0l0.5-0.1l-0.3-0.2c-0.2-0.1-0.4-0.2-0.4-0.2C113.8,16.1,113.6,16.4,113.6,16.5z"/>
	<path d="M113.9,22.9c0.1,0,0.1-0.1,0.1-0.1c0-0.1-0.1-0.1-0.1-0.1c-0.1,0-0.1,0-0.1,0.1C113.7,22.8,113.8,22.9,113.9,22.9z"/>
	<path d="M113.7,15.8c0,0-0.2,0-0.3,0c-0.1,0-0.1,0.1,0.1,0.1C113.7,15.9,113.8,15.8,113.7,15.8z"/>
	<path d="M113.1,20.6c0.1,0,0.2-0.1,0.1-0.2c-0.1-0.2-0.3-0.2-0.4,0C112.7,20.6,112.8,20.7,113.1,20.6z"/>
	<path d="M113.2,16.6c0.1,0,0.1,0,0.1-0.1c0-0.1-0.1-0.1-0.2-0.1C113,16.4,113,16.5,113.2,16.6z"/>
	<path d="M113,23.5c-0.1,0-0.1,0-0.1,0.1c0,0.1,0.1,0.1,0.1,0.1c0.1,0,0.1-0.1,0.1-0.1C113.2,23.5,113.1,23.5,113,23.5z"/>
	<path d="M112.8,15.8c0,0-0.1,0-0.2,0.1c0,0.1,0,0.1,0.1,0.1c0.1,0,0.2-0.1,0.2-0.1C112.9,15.8,112.9,15.8,112.8,15.8z"/>
	<path d="M112.9,15.2c-0.1-0.2-0.3-0.2-0.4,0c0,0.1,0,0.2,0.2,0.2C112.8,15.3,112.9,15.3,112.9,15.2z"/>
	<path d="M112.8,14.5c0.2-0.1,0.1-0.3-0.1-0.3c-0.1,0-0.2,0.1-0.2,0.1C112.5,14.5,112.7,14.6,112.8,14.5z"/>
	<path d="M112.2,14c0.1,0,0.1-0.1,0.1-0.1c0-0.1-0.1-0.1-0.1-0.1c-0.1,0-0.1,0-0.1,0.1C112,13.9,112.1,14,112.2,14z"/>
	<path d="M112,15.7c-0.1,0-0.1,0-0.1,0c0,0.1,0.1,0.1,0.1,0.1c0.1,0,0.1,0,0.1,0C112.2,15.8,112.1,15.7,112,15.7z"/>
	<path d="M111.4,15.2c-0.3,0.1-0.7,0.1-0.9,0.1c-0.3,0-0.3,0-0.3,0.1c0.1,0.2,0.7,0.2,1.3,0c0.3-0.1,0.5-0.2,0.5-0.3
		C112,15,112,15,111.4,15.2z"/>
	<path d="M112,14.7c0.2-0.3,0.1-0.4-0.2-0.3c-0.2,0-0.3,0.1-0.3,0.3C111.5,14.8,111.9,14.9,112,14.7z"/>
	<path d="M111.6,19.8c0.2-0.1,0.2-0.1,0.1-0.2c-0.1-0.1-0.2-0.1-0.3,0C111.1,19.8,111.3,19.9,111.6,19.8z"/>
	<path d="M110.6,13.9c0.1-0.2,0.1-0.2,0.3,0c0.1,0.1,0.3,0.2,0.4,0.2c0.3,0,0.2-0.1-0.2-0.4c-0.6-0.4-0.8-0.4-0.8,0.1
		C110.3,14.1,110.5,14.2,110.6,13.9z"/>
	<path d="M110.7,14.7c0.4,0,0.5,0,0.5-0.1c0.1-0.2-0.5-0.3-0.8-0.2C110.1,14.5,110.2,14.7,110.7,14.7z"/>
	<path d="M109.6,16.8c0.4,0,0.5,0,0.5,0.2c0,0.2-0.1,0.2-0.4,0.2c-0.5,0-0.7,0.1-0.4,0.3c0.2,0.1,1.2,0.5,1.3,0.5c0,0,0-0.2,0-0.4
		c-0.1-0.3,0-0.4,0.2-0.4c0.1,0,0.3,0,0.4,0c0.2,0,0.1-0.2-0.2-0.2c-0.2,0-0.3-0.1-0.4-0.3c-0.1-0.2-0.2-0.3-0.7-0.3
		c-0.5,0-0.7,0-0.7,0.1C109.1,16.8,109.2,16.8,109.6,16.8z"/>
	<path d="M110.9,20.9c0.1-0.1,0.1-0.1,0-0.2c-0.2-0.2-0.3-0.1-0.2,0.1C110.7,20.9,110.8,20.9,110.9,20.9z"/>
	<path d="M109.6,20.9c0,0.1,0.3,0.5,0.4,0.5c0.2,0,0.2-0.2-0.1-0.4C109.8,20.9,109.6,20.8,109.6,20.9z"/>
	<path d="M110.1,19.9c0-0.1-0.1-0.1-0.1-0.1c-0.1,0-0.1,0-0.1,0.1c0,0.1,0.1,0.1,0.1,0.1C110,20,110.1,19.9,110.1,19.9z"/>
	<path d="M109.9,19.2c-0.1,0-0.1,0-0.1,0.2c0,0.1,0.1,0.2,0.1,0.2c0.1,0,0.1-0.1,0.1-0.2S110,19.2,109.9,19.2z"/>
	<path d="M109.8,18.1c-0.2,0-0.3,0-0.3,0.1c0,0.1,0,0.2-0.1,0.3c-0.1,0.2,0.4,0.4,0.5,0.2C110.2,18.4,110.1,18.1,109.8,18.1z"/>
	<path d="M109.2,15.2c0,0.1,0.5,0.2,0.7,0.2c0.2-0.1,0.2-0.2-0.2-0.3C109.4,15,109.2,15.1,109.2,15.2z"/>
	<path d="M109.6,14.7c0.1,0,0.2,0,0.2,0c0.1-0.1,0.1-0.3,0-0.3C109.6,14.4,109.5,14.7,109.6,14.7z"/>
	<path d="M109.8,14.1c0.1,0,0.1-0.1,0.1-0.1c0-0.1-0.2-0.1-0.2-0.1c-0.1,0-0.1,0-0.1,0.1C109.6,14,109.7,14.1,109.8,14.1z"/>
	<path d="M109.3,20.2c-0.3-0.3-0.5-0.3-0.3,0c0.1,0.2,0.1,0.2-0.1,0.2c-0.1,0-0.2,0-0.2,0.1c0,0.1,0.2,0.1,0.4,0.1
		C109.6,20.6,109.6,20.6,109.3,20.2z"/>
	<path d="M109,19.1c-0.2,0.1-0.2,0.1,0,0.2c0.1,0.1,0.3,0.1,0.4,0C109.6,19.2,109.3,19,109,19.1z"/>
	<path d="M108,14c0,0.1,0.1,0.4,0.1,0.5c0,0.3,0.1,0.3,0.5,0.3c0.3,0,0.5-0.1,0.6-0.1c0.2-0.2,0.2-0.5,0-0.6
		c-0.2-0.1-0.4,0.2-0.3,0.3c0,0-0.1,0.1-0.2,0.1c-0.3,0-0.3,0-0.2-0.3c0.1-0.2,0-0.3-0.2-0.4C108,13.8,107.9,13.8,108,14z"/>
	<path d="M107.5,17.6c0.2-0.1,0.3-0.1,0.5,0.1c0.2,0.1,0.4,0.3,0.5,0.3c0.1,0,0.2,0.2,0.3,0.4c0.1,0.2,0.2,0.4,0.2,0.5
		c0.1,0,0.1-0.2,0.1-0.4c0-0.4-0.1-0.5-0.2-0.6c-0.5-0.1-0.6-0.3-0.5-0.4c0.2-0.2-0.2-0.3-0.9-0.3c-0.4,0-0.5,0.1-0.5,0.2
		C107,17.6,107.2,17.7,107.5,17.6z"/>
	<path d="M108.9,22.5c0-0.1-0.1-0.1-0.2-0.1c-0.1,0-0.1,0-0.1,0.1c0,0.1,0.1,0.1,0.2,0.1C108.9,22.6,108.9,22.6,108.9,22.5z"/>
	<path d="M108.5,21.4c0.2,0,0.3,0,0.3-0.1s-0.1-0.1-0.3-0.1c-0.2,0-0.3,0-0.3,0.1C108.2,21.3,108.4,21.4,108.5,21.4z"/>
	<path d="M108.5,20.2c0.1,0,0.1-0.1,0.1-0.2c0-0.1-0.4-0.1-0.5,0C108.1,20.1,108.3,20.2,108.5,20.2z"/>
	<path d="M107.6,18.9c0.2,0,0.4,0,0.6,0.1c0.3,0.1,0.3,0.1,0.3-0.1c0-0.3-0.4-0.4-0.9-0.3C107.2,18.7,107.2,18.9,107.6,18.9z"/>
	<path d="M108.3,15.2c-0.1,0-0.2,0-0.2,0.1c0,0.1,0.1,0.1,0.2,0.1c0.1,0,0.2-0.1,0.2-0.1C108.5,15.3,108.4,15.2,108.3,15.2z"/>
	<path d="M107.6,13.3c0.4,0.1,0.5,0,0.2-0.1c-0.2-0.1-0.1-0.1,0.2-0.3c0.4-0.2,0.4-0.2,0.3-0.5c-0.1-0.2-0.3-0.2-0.3,0
		c0,0.1-0.2,0.2-0.4,0.3C107.2,12.9,107.1,13.2,107.6,13.3z"/>
	<path d="M104.5,23c0.2-0.2,0.5-0.1,0.5,0.1c0,0.1,0,0.1,0.1,0.1c0.1,0,0.2,0,0.2,0c0.1,0,0.1-0.1,0.1-0.1c0-0.1,0.1-0.3,0.3-0.4
		c0.4-0.4,0.3-0.5-0.2-0.3c-0.3,0.2-0.8,0.2-0.8,0.1s0.3-0.6,0.4-0.6c0.1,0,0.5,0.1,0.9,0.1c0.6,0.1,1,0.1,1.5,0l0.7-0.1l-0.5-0.1
		c-0.5-0.2-3.5-0.3-3.4-0.1c0.1,0.1-0.3,0.4-0.6,0.4c-0.3,0-0.3,0-0.2-0.3c0.1-0.3,0-0.3-0.2-0.2c-0.4,0.2-0.5,0.3-0.2,0.5
		c0.3,0.2,0.4,0.3,0.1,0.3c-0.1,0-0.2,0-0.2,0.1c0,0.1,0.1,0.1,0.2,0.1s0.3,0.1,0.3,0.2C103.6,23.1,104.2,23.2,104.5,23z"/>
	<path d="M108,20.5c0.2-0.1,0.2-0.1,0.1-0.2c-0.1-0.1-0.2-0.1-0.3,0C107.6,20.5,107.7,20.6,108,20.5z"/>
	<path d="M107.7,19.7c0.1,0,0.2-0.1,0.2-0.2c0-0.2-0.4-0.2-0.5,0C107.2,19.6,107.5,19.8,107.7,19.7z"/>
	<path d="M107.3,13.7c-0.1,0.3,0,0.6,0.2,0.4c0.2-0.2,0.2-0.3,0-0.5C107.4,13.4,107.4,13.4,107.3,13.7z"/>
	<path d="M107.2,21.4c0.1,0,0.2-0.1,0.2-0.1c0-0.1-0.1-0.1-0.2-0.1c-0.1,0-0.2,0-0.2,0.1C107,21.3,107.1,21.4,107.2,21.4z"/>
	<path d="M107.1,19.1c-0.1,0-0.1,0.1,0,0.2c0,0.1,0.1,0.1,0.2,0c0.1,0,0.1-0.1,0-0.2C107.3,19.1,107.2,19.1,107.1,19.1z"/>
	<path d="M106.2,12.2c0-0.1,0.2-0.1,0.5-0.1c0.2,0,0.5-0.1,0.6-0.1c0.2-0.1,0.2-0.4,0-0.5c-0.2-0.1-1.1,0.2-1.2,0.5
		C105.9,12.2,106.1,12.4,106.2,12.2z"/>
	<path d="M107.1,20c0-0.1-0.1-0.2-0.2-0.2c-0.3,0-0.4,0.2-0.1,0.3C107.1,20.2,107.1,20.2,107.1,20z"/>
	<path d="M105.7,19.1c0.1,0,0.1,0.1,0.1,0.2c-0.1,0.1,0,0.2,0.2,0.2c0.2,0,0.2-0.1,0.2-0.2c0-0.1,0-0.2,0.1-0.2
		c0.1,0,0.3-0.1,0.5-0.2c0.5-0.3,0.3-0.4-0.5-0.2C105.6,18.9,105.3,19.1,105.7,19.1z"/>
	<path d="M106.8,16.1c-0.1,0-0.1,0-0.1,0.1c0,0.1,0.1,0.2,0.1,0.2c0.1,0,0.1-0.1,0.1-0.1S106.9,16.2,106.8,16.1z"/>
	<path d="M106.7,12.6c-0.1,0-0.2,0-0.2,0.1c-0.2,0.3-0.1,0.4,0.1,0.3C106.8,12.9,106.9,12.7,106.7,12.6z"/>
	<path d="M106.5,21.2c-0.1,0-0.1,0-0.1,0c0,0,0.1,0.1,0.1,0.1c0.1,0,0.1,0,0.1,0C106.7,21.2,106.6,21.2,106.5,21.2z"/>
	<path d="M106.3,16.1c-0.1,0-0.2,0-0.2,0.1c0,0.1,0,0.1,0.1,0.1c0.1,0,0.2-0.1,0.2-0.1C106.4,16.1,106.3,16.1,106.3,16.1z"/>
	<path d="M105.3,24c0.3,0.1,0.4,0.1,0.7-0.1c0.3-0.2,0.4-0.4,0.2-0.4c0,0-0.3,0.1-0.6,0.2C105.2,23.9,105.2,24,105.3,24z"/>
	<path d="M105.8,12.6c-0.1,0-0.1,0-0.1,0.1c0,0.1,0.1,0.1,0.1,0.1c0.1,0,0.1-0.1,0.1-0.1C106,12.6,105.9,12.6,105.8,12.6z"/>
	<path d="M105.1,20c0,0.1,0.1,0.1,0.1,0.1c0.1,0,0.1-0.1,0.1-0.1c0-0.1-0.1-0.1-0.1-0.1C105.2,19.9,105.1,19.9,105.1,20z"/>
	<path d="M103.8,20.2c0.3,0,0.8-0.4,1.1-0.8c0.2-0.3,0.4-0.5,0.5-0.5c0.2,0-0.6-0.3-0.8-0.3c-0.1,0-0.2,0.1-0.2,0.2
		c0,0.1,0.1,0.2,0.2,0.3c0.1,0,0.1,0.1-0.1,0.2c-0.1,0.1-0.3,0.3-0.3,0.4c0,0.1-0.1,0.3-0.2,0.3c-0.1,0-0.2,0-0.1-0.2
		c0.1-0.3,0-0.4-0.3-0.1c-0.2,0.2-0.2,0.2-0.3,0c-0.1-0.1-0.2-0.1-0.2-0.1C102.8,19.7,103.6,20.2,103.8,20.2z"/>
	<path d="M104.1,13.4c-0.2,0-0.1,0.2,0.1,0.3c0.1,0,0.1,0,0.1-0.1C104.3,13.5,104.2,13.4,104.1,13.4z"/>
	<path d="M103.3,18.7c-0.5-0.1-0.5-0.1-0.6,0.3c-0.1,0.4,0.2,0.4,0.6,0.2C103.8,18.9,103.8,18.8,103.3,18.7z"/>
	<path d="M103.5,18.5c0,0,0-0.1,0-0.1c-0.1-0.1-0.5-0.1-0.5,0S103.4,18.6,103.5,18.5z"/>
	<path d="M103.3,13.5c-0.3,0-0.3,0-0.1,0.1c0.1,0.1,0.3,0.1,0.3,0.1C103.7,13.6,103.6,13.5,103.3,13.5z"/>
	<path d="M102.5,21.5c-0.3,0.2-0.2,0.2,0,0.2c0.2,0,0.3-0.1,0.3-0.2c0-0.1,0-0.2,0-0.2C102.8,21.3,102.7,21.4,102.5,21.5z"/>
	<path d="M102.2,23.5c-0.1,0-0.1,0-0.1,0c0,0,0.1,0.1,0.1,0.1c0.1,0,0.1,0,0.1,0C102.3,23.5,102.2,23.5,102.2,23.5z"/>
	<path d="M101.8,14.5c-0.1,0.1-0.1,0.1,0,0.1c0.1,0,0.1,0.1,0.1,0.3c-0.1,0.3,0.1,0.3,0.3,0.2c0.1-0.1,0.1-0.4,0-0.6
		C102.1,14.4,102,14.4,101.8,14.5z"/>
	<path d="M102,16.1c-0.1,0-0.1,0.1-0.1,0.2c0,0.1,0.1,0.2,0.1,0.2c0.1,0,0.1-0.1,0.1-0.2C102.2,16.1,102.1,16.1,102,16.1z"/>
	<path d="M102,13.8c0.1,0,0.2,0,0.1-0.1c0-0.1-0.1-0.2-0.2-0.2c-0.1,0-0.2,0-0.1,0.1C101.8,13.7,101.9,13.8,102,13.8z"/>
	<path d="M101.5,13.8c-0.1,0-0.2,0-0.1,0.1c0,0.1,0.1,0.2,0.2,0.2c0.1,0,0.2,0,0.1-0.1C101.7,13.9,101.6,13.8,101.5,13.8z"/>
	<path d="M101.2,19.6c-0.1,0.1-0.1,0.1,0,0.2c0.1,0.1,0.2,0.1,0.3,0c0.1-0.1,0.1-0.1,0-0.2C101.4,19.6,101.3,19.6,101.2,19.6z"/>
	<path d="M98.1,13.6c-0.7,0-0.9-0.1-1.1-0.2c-0.2-0.2-0.3-0.2-0.5,0c-0.2,0.2-0.2,0.2,0.2,0.3c0.3,0.1,1,0.2,1.6,0.2
		c0.8,0.1,1,0.1,0.8,0.2c-0.2,0-0.4,0.2-0.4,0.4c-0.2,0.4,0,0.6,0.6,0.5c0.4,0,0.4-0.1,0.4-0.5c0-0.5,0.1-0.5,0.5-0.4
		c0.2,0.1,0.2,0.1,0.1,0.2c-0.1,0.1-0.1,0.2,0,0.4c0.2,0.3,0.5,0.3,0.9,0c0.2-0.2,0.3-0.4,0.3-0.4C101.4,14.1,99.2,13.6,98.1,13.6z"
		/>
	<path d="M99.7,22.2c-0.1,0-0.2-0.1-0.2-0.3c0-0.2,0-0.3-0.4-0.1c-0.4,0.1-0.5,0.5-0.1,0.8c0.3,0.2,0.6,0.2,0.7,0
		C99.9,22.3,99.9,22.2,99.7,22.2z"/>
	<path d="M99.4,15.7c-0.2,0.1,0.1,0.4,0.3,0.3c0.1,0,0.2-0.1,0.2-0.2C99.9,15.7,99.6,15.6,99.4,15.7z"/>
	<path d="M99.8,11.1c-0.2-0.1-0.5,0.3-0.4,0.5c0,0.1,0,0.2-0.1,0.3c-0.1,0.1-0.1,0.1,0,0.1c0.1,0,0.2-0.1,0.4-0.2
		C99.9,11.6,100,11.3,99.8,11.1z"/>
	<path d="M99.1,18.9c-0.2-0.1-0.3-0.1-0.6,0.1l-0.3,0.2l0.3,0.2c0.3,0.2,0.3,0.2,0.6,0.1C99.5,19.3,99.5,19.1,99.1,18.9z"/>
	<path d="M98.9,23.1c-0.1,0-0.1,0-0.1,0c0,0.1,0.1,0.1,0.1,0.2c0.1,0,0.1,0,0.1,0C99.1,23.2,99,23.2,98.9,23.1z"/>
	<path d="M97.8,14.5c-0.1,0-0.1,0.1-0.1,0.1c0,0.1,0.1,0.1,0.1,0c0.1,0,0.1-0.1,0.1-0.1C97.9,14.5,97.9,14.5,97.8,14.5z"/>
	<path d="M97.7,24.9c0.3-0.1,0.1-0.3-0.5-0.3c-0.3,0-0.6,0-0.5,0.1C96.7,24.8,97.5,25,97.7,24.9z"/>
	<path d="M95.8,14.5c-0.4,0,0.4,0.3,1.1,0.4c0.4,0.1,0.6,0,0.5,0C97.4,14.7,96.3,14.5,95.8,14.5z"/>
	<path d="M96.7,14.2c0.1,0,0.2,0,0.2-0.1c0-0.1-0.3-0.1-0.5-0.1c-0.4,0-0.4,0-0.2,0.1C96.3,14.1,96.5,14.2,96.7,14.2z"/>
	<path d="M95.3,10.7"/>
	<path d="M95.2,13.1c-0.7-0.2-0.9-0.1-0.3,0.2c0.3,0.1,0.6,0.2,0.7,0.2c0.1,0,0.1,0,0.1-0.1C95.7,13.3,95.4,13.2,95.2,13.1z"/>
	<path d="M94.7,10.4c-0.1-0.1-0.2-0.1-0.3,0c-0.1,0.1-0.1,0.1,0.2,0.1C94.8,10.6,94.8,10.5,94.7,10.4z"/>
	<path d="M93.6,13.5c-0.1,0-0.2,0-0.1,0c0,0.1,0.1,0.1,0.2,0.1C93.9,13.6,93.9,13.6,93.6,13.5z"/>
	<path d="M88.9,12.3c0.1,0.2,0.4,0.3,0.8,0.4c0.7,0.2,0.9,0.1,0.9-0.3"/>
	<path d="M91,23.5l0.5-0.1l-0.6,0c-0.5,0-0.8,0-0.6,0.1C90.4,23.6,90.7,23.6,91,23.5z"/>
	<path d="M91,12.5c-0.2,0.1,0,0.4,0.2,0.3c0.1,0,0.1-0.1,0.1-0.2C91.3,12.4,91.2,12.4,91,12.5z"/>
	<path d="M87.3,12.3"/>
	<path d="M53.6,29.5c-0.4-0.1-0.4-0.1-0.2,0.1c0.1,0.1,0.4,0.2,0.6,0.2C54.4,29.7,54.2,29.6,53.6,29.5z"/>
	<path d="M52.3,29.5c-0.1,0-0.1,0-0.1,0c0,0.1,0.1,0.1,0.1,0.1c0.1,0,0.1,0,0.1,0C52.4,29.6,52.4,29.5,52.3,29.5z"/>
	<path d="M40.6,26.9c0.1,0,0.2-0.1,0.2-0.1c0-0.1-0.1-0.1-0.2-0.1c-0.1,0-0.2,0-0.2,0.1C40.4,26.8,40.5,26.9,40.6,26.9z"/>
	<path d="M39.3,36.9c0-0.1,0.1-0.2,0.1-0.2c-0.1,0-0.1,0-0.2,0c-0.3,0-0.9-0.2-1.2-0.3c-0.7-0.2-4.2-0.8-4.6-0.8
		c-0.4,0,3.2,1.2,4,1.3c0.4,0.1,1.1,0.1,1.6,0.1C39.2,36.9,39.3,36.9,39.3,36.9z"/>
	<path d="M39.5,27.9c0.4,0.1,0.5,0,0.3-0.3c-0.1-0.1-0.3-0.1-0.5-0.1C38.8,27.6,38.9,27.8,39.5,27.9z"/>
	<path d="M37.2,34.4c1,0.3,2.1,0.5,2.4,0.3c0.2-0.1-0.7-0.4-2.3-0.8c-0.9-0.2-1.9-0.4-2.1-0.4c-0.2,0-0.8-0.1-1.2-0.1
		c-1.4-0.3-2.1-0.3-2.2-0.1c-0.1,0.2,0.2,0.3,0.8,0.2c0.3,0,0.5,0,0.6,0c0.1,0.1,0.5,0.1,2.4,0.4C35.9,33.9,36.6,34.1,37.2,34.4z"/>
	<path d="M39.4,26.5c0.4,0,0.4-0.2-0.1-0.3c-0.2,0-0.3,0-0.3,0.1C39,26.4,39.1,26.5,39.4,26.5z"/>
	<path d="M36.3,27.3c0.3,0,0.5,0,0.5,0.1c0.1,0.2,0.8,0.3,1.2,0.2c0.3-0.1,0.3-0.1,0.1-0.4c-0.1-0.2-0.4-0.3-1-0.5
		c-0.5-0.1-0.8-0.2-0.8-0.1c0,0.1,0.8,0.4,1.1,0.4c0.2,0,0.3,0.1,0.3,0.2c0,0.2,0,0.2-0.5,0c-0.5-0.2-1.1-0.2-1.2,0
		C35.9,27.3,36,27.3,36.3,27.3z"/>
	<path d="M35.1,37.1c-0.5-0.1-1-0.1-1.1-0.2c-0.1,0-0.3,0-0.3,0c0,0.3,3.4,1.1,4.1,1c0.2,0,0.3-0.1,0.2-0.1
		C37.9,37.7,36,37.2,35.1,37.1z"/>
	<path d="M35.8,26.6c0.1,0,0.1-0.1,0.1-0.1c0-0.1-0.1-0.1-0.1-0.1c-0.1,0-0.1,0-0.1,0.1C35.6,26.5,35.7,26.6,35.8,26.6z"/>
	<path d="M35,27.2c0.1,0,0.2,0,0.1-0.1c0-0.1-0.1-0.2-0.2-0.2c-0.1,0-0.2,0-0.1,0.1C34.8,27.1,34.9,27.2,35,27.2z"/>
	<path d="M34.3,24.9c0.1,0,0.1,0,0.1,0c0,0-0.1-0.1-0.1-0.1c-0.1,0-0.1,0-0.1,0C34.2,24.8,34.3,24.9,34.3,24.9z"/>
	<path d="M33.8,28c0,0.1,0.1,0.1,0.2,0.1c0.1,0,0.2-0.1,0.2-0.1c0-0.1-0.1-0.1-0.2-0.1C33.9,27.9,33.8,28,33.8,28z"/>
	<path d="M33.3,30.7c0.1,0,0.3,0,0.4,0.1c0.2,0,0.3,0,0.3,0C34.1,30.6,33.4,30.5,33.3,30.7C33.2,30.7,33.2,30.7,33.3,30.7z"/>
	<path d="M32.7,27.4c-0.2,0.1-0.2,0.1,0,0.2c0.3,0.2,1.1,0.2,1.3,0.1C34.1,27.5,33,27.3,32.7,27.4z"/>
	<path d="M33.1,26.8c0.4,0.1,0.8,0.1,0.8,0.1c0.2-0.1,0-0.3-0.4-0.3c-0.5,0-0.7-0.2-0.4-0.3c0.3-0.1,0.2-0.3-0.2-0.3
		c-0.3,0-0.4,0-0.5,0.4C32.4,26.6,32.4,26.6,33.1,26.8z"/>
	<path d="M33.6,25.4c0.1,0,0.1,0,0.1-0.1c0-0.1-0.1-0.1-0.2-0.1C33.4,25.2,33.5,25.3,33.6,25.4z"/>
	<path d="M33.3,22.8c0.2,0,0.3,0,0.2-0.1c0-0.1-0.3-0.1-0.6-0.1c-0.4,0-0.5,0-0.2,0.1C32.9,22.8,33.1,22.8,33.3,22.8z"/>
	<path d="M32.9,29.3c0.1,0,0.2-0.1,0.1-0.1c0-0.1-0.1-0.1-0.2-0.1c-0.1,0-0.1,0-0.1,0.1C32.6,29.3,32.7,29.3,32.9,29.3z"/>
	<path d="M32.7,30c0.1,0,0.2-0.1,0.2-0.1c0-0.1-0.1-0.1-0.3-0.1c-0.2,0-0.2,0-0.2,0.1C32.5,29.9,32.6,30,32.7,30z"/>
	<path d="M31.9,31.4c0.3,0,0.4-0.1,0.3-0.2c-0.3-0.2-0.2-0.5,0.2-0.6c0.4-0.1,0.4-0.1,0.1-0.3c-0.2-0.1-0.5-0.1-0.7-0.1
		c-0.4,0-0.4,0.1-0.5,0.5C31.3,31.3,31.4,31.4,31.9,31.4z"/>
	<path d="M32.3,27.3c0.1-0.1,0.1-0.2,0.1-0.2c-0.1-0.1-0.6,0.1-0.7,0.2C31.6,27.5,32.1,27.4,32.3,27.3z"/>
	<path d="M31.4,26.1c0.1,0.1,0.2,0.1,0.4-0.1c0.2-0.2,0.2-0.3,0.1-0.5c-0.1-0.2-0.2-0.2-0.4-0.2C31.2,25.5,31.2,25.9,31.4,26.1z"/>
	<path d="M31.7,29.2c-0.5-0.1-2,0-2.1,0c-0.3,0.2-0.2,0.4,0.2,0.5c0.2,0,0.5,0.1,0.7,0.2c0.3,0.1,0.3,0.1,0.4,0
		c0-0.1,0.2-0.2,0.4-0.2c0.2,0,0.4-0.1,0.5-0.1C31.9,29.5,31.9,29.2,31.7,29.2z"/>
	<path d="M30.2,27.4c0.1,0,0.1,0.1,0,0.3c-0.1,0.1-0.1,0.2,0,0.3c0.2,0.1,0.3-0.1,0.2-0.2c-0.1-0.1,0.3-0.6,0.6-0.6
		c0.3,0,0.3,0,0.1-0.3c-0.2-0.2-0.5-0.3-0.4-0.1c0.1,0.1-0.1,0.2-0.3,0.3C30.1,27.1,30,27.2,30.2,27.4z"/>
	<path d="M31.2,23.8c0.1,0,0.2-0.1,0.2-0.3c0-0.4-0.1-0.4-0.3-0.1C30.8,23.7,30.9,23.8,31.2,23.8z"/>
	<path d="M31.2,23c0.1,0,0.1-0.1,0.1-0.2c0-0.1-0.1-0.2-0.1-0.2c-0.1,0-0.1,0.1-0.1,0.2C31.1,22.9,31.2,23,31.2,23z"/>
	<path d="M30.3,35c-0.1,0-0.2,0-0.3,0.1c-0.1,0.1,0.1,0.1,0.3,0.1c0.2,0,0.3,0,0.3-0.1C30.6,35.1,30.4,35,30.3,35z"/>
	<path d="M30.4,28.5c-0.1,0-0.2,0-0.2,0.1c0,0.1,0.1,0.1,0.2,0.2C30.8,28.8,30.7,28.6,30.4,28.5z"/>
	<path d="M30.3,30.4c0.1,0,0.1-0.1,0.1-0.1c0-0.1-0.2-0.1-0.2-0.1c-0.1,0-0.1,0-0.1,0.1C30.1,30.3,30.2,30.4,30.3,30.4z"/>
	<path d="M29.6,28c0.2-0.1,0.2-0.2-0.1-0.2c-0.1,0-0.2,0.1-0.1,0.1C29.4,28,29.5,28,29.6,28z"/>
	<path d="M28.7,29.2c0,0,0.2,0,0.3,0c0.2-0.1,0.2-0.1,0-0.1C28.8,29,28.6,29.1,28.7,29.2z"/>
	<path d="M12.6,22.9c0-0.1,0-0.1-0.1-0.1c0,0-0.1,0-0.2,0.1c0,0.1,0,0.1,0.1,0.1C12.5,23,12.6,22.9,12.6,22.9z"/>
</g>
</svg>
